<svg width="227" height="227" viewBox="0 0 227 227" fill="none" xmlns="http://www.w3.org/2000/svg">
<g clip-path="url(#clip0_88_361)">
<circle cx="114" cy="113" r="113" fill="#EDE7E3"/>
<path d="M113.498 226.993C110.91 226.993 108.33 226.905 105.833 226.738C103.252 226.567 100.668 226.305 98.1452 225.959C97.0351 225.81 96.0305 225.661 95.0732 225.504C92.2305 225.042 89.3368 224.456 86.4758 223.757C85.4967 223.52 84.5358 223.273 83.6258 223.018C83.3055 222.934 82.9779 222.843 82.654 222.752C81.2708 222.363 79.9314 221.959 78.6793 221.551C78.5992 221.529 78.5045 221.497 78.4099 221.467C77.2779 221.103 76.0986 220.699 74.9084 220.266C73.9038 219.902 72.8846 219.516 71.7926 219.087C69.5177 218.192 67.2392 217.202 65.0189 216.15C64.0943 215.716 63.1298 215.24 62.0669 214.701C61.8777 214.606 61.6847 214.508 61.4955 214.41L61.2771 214.297C48.7996 207.818 37.7381 199.173 28.4055 188.607C10.0897 167.867 0 141.19 0 113.495C0 83.1781 11.8077 54.6744 33.2429 33.2392C54.678 11.8041 83.1818 0 113.498 0C143.815 0 172.318 11.8041 193.757 33.2392C215.196 54.6744 227 83.1781 227 113.495C227 131.308 222.989 148.361 215.083 164.18C207.541 179.263 196.502 192.727 183.151 203.112C180.013 205.558 176.708 207.858 173.33 209.955C169.905 212.087 166.313 214.064 162.651 215.826C161.836 216.219 160.962 216.626 159.899 217.103L159.797 217.147C159.666 217.205 159.535 217.263 159.404 217.318C158.611 217.671 157.803 218.017 157.005 218.344L156.645 218.497C156.419 218.592 156.208 218.679 155.997 218.759C153.293 219.851 150.567 220.834 147.895 221.675C147.684 221.748 147.469 221.813 147.251 221.879L147.061 221.937C144.841 222.625 142.504 223.265 140.127 223.837C131.468 225.926 122.507 226.985 113.498 226.985L113.498 226.993ZM113.498 0.727972C83.3747 0.727972 55.0566 12.4556 33.7561 33.7561C12.4592 55.0529 0.727972 83.371 0.727972 113.495C0.727972 141.016 10.7522 167.517 28.9551 188.123C38.2295 198.62 49.2182 207.21 61.6156 213.645L61.834 213.758C62.0196 213.856 62.2089 213.951 62.3982 214.046C63.4574 214.584 64.4146 215.058 65.3319 215.487C67.5376 216.532 69.8016 217.515 72.062 218.403C73.1467 218.832 74.1586 219.214 75.1559 219.575C76.3388 220.004 77.5109 220.405 78.6392 220.769C78.7266 220.798 78.8103 220.823 78.894 220.849C80.1498 221.256 81.4747 221.657 82.8505 222.046C83.1672 222.137 83.4912 222.228 83.8115 222.312C84.7214 222.563 85.6714 222.81 86.6433 223.047C89.4897 223.742 92.3615 224.328 95.1897 224.783C96.1397 224.94 97.137 225.089 98.2399 225.238C100.744 225.58 103.314 225.842 105.876 226.01C108.359 226.177 110.921 226.265 113.491 226.265C122.445 226.265 131.344 225.213 139.953 223.138C142.315 222.57 144.634 221.933 146.847 221.249L147.036 221.191C147.247 221.125 147.454 221.063 147.666 220.991C150.326 220.153 153.038 219.178 155.728 218.09C155.939 218.006 156.143 217.922 156.347 217.838L156.794 217.653C157.562 217.336 158.341 217.001 159.113 216.659C159.248 216.601 159.371 216.546 159.499 216.488L159.601 216.444C160.656 215.968 161.526 215.564 162.334 215.174C165.974 213.423 169.545 211.461 172.948 209.339C176.304 207.257 179.587 204.968 182.707 202.54C195.97 192.217 206.941 178.841 214.435 163.856C222.29 148.142 226.276 131.199 226.276 113.498C226.276 83.3747 214.544 55.0566 193.244 33.7597C171.943 12.4556 143.622 0.727972 113.498 0.727972Z" fill="#1A1F2D"/>
<path d="M99.7213 155.105L127.301 161.712L124.101 123.064L99.7432 125.08L99.7213 155.105Z" fill="#A0616A"/>
<path d="M119.449 134.129C134.277 134.129 146.297 122.109 146.297 107.281C146.297 92.4538 134.277 80.4337 119.449 80.4337C104.622 80.4337 92.6018 92.4538 92.6018 107.281C92.6018 122.109 104.622 134.129 119.449 134.129Z" fill="#A0616A"/>
<path d="M147.786 221.333C147.571 221.406 147.36 221.471 147.145 221.537C147.083 221.555 147.021 221.577 146.959 221.595C144.684 222.301 142.377 222.931 140.044 223.491C131.53 225.544 122.638 226.629 113.498 226.629C110.928 226.629 108.38 226.545 105.858 226.374C103.277 226.203 100.722 225.944 98.1961 225.599C97.1697 225.46 96.1505 225.311 95.135 225.144C92.2413 224.674 89.3804 224.088 86.5631 223.4C85.6131 223.171 84.6668 222.927 83.7241 222.665C83.4001 222.581 83.0762 222.49 82.7559 222.399C81.4273 222.024 80.106 221.628 78.7957 221.202C78.7083 221.176 78.6173 221.147 78.53 221.118C77.3579 220.739 76.1932 220.339 75.0357 219.92C73.9947 219.546 72.961 219.152 71.9309 218.745C69.6414 217.842 67.392 216.867 65.179 215.818L66.0307 211.96L68.9826 198.595L75.3924 169.556L81.8714 140.211L98.895 140.684H98.9023L99.7322 140.71L125.622 141.431L136.95 141.747L147.786 221.333Z" fill="#4D5260"/>
<path d="M172.306 209.229C168.877 211.366 165.321 213.32 161.659 215.082C160.753 215.519 159.836 215.941 158.915 216.356C158.751 216.429 158.591 216.502 158.427 216.571C157.634 216.924 156.837 217.266 156.032 217.597L155.672 217.75C155.461 217.837 155.25 217.925 155.035 218.009C152.389 219.079 149.695 220.054 146.954 220.917C146.74 220.99 146.528 221.055 146.314 221.121L122.567 160.36L120.962 156.258L116.485 144.796L115 141L124.802 141.153L136.118 141.331C146.39 142.645 154.907 149.914 157.823 159.847L172.31 209.229L172.306 209.229Z" fill="#4D5260"/>
<path d="M100.617 119.548C101.57 119.387 102.524 119.224 103.478 119.064C103.703 113.964 104.195 108.275 108.013 104.886C110.117 103.019 113.16 101.931 114.204 99.3173C115.071 97.1516 114.263 94.4908 115.471 92.4962C116.741 90.396 119.58 90.0211 122.034 89.8682C125.874 89.6316 129.783 89.3987 133.521 90.3086C137.259 91.2222 140.866 93.4717 142.461 96.9732C142.952 98.0506 143.236 99.2117 143.52 100.362C144.477 104.253 145.944 111.656 145.944 111.656C145.944 111.656 146.228 110.124 147.036 107.143C148.685 104.784 150.698 102.608 151.666 99.8997C152.831 96.6384 152.317 92.9949 151.174 89.7299C148.579 82.3009 142.559 76.0222 135.061 73.6344C127.559 71.2503 120.465 69.8999 114.86 75.4252C113.808 76.4626 112.861 77.6201 111.66 78.4791C109.44 80.0697 106.604 80.4701 104.1 81.5693C98.5274 84.0153 93.4899 89.8973 92.2341 95.8522C90.9784 101.807 91.6335 107.977 92.296 114.03C92.8675 119.249 95.3462 125.069 99.6922 128.018C99.8705 125.346 100.049 122.678 100.227 120.006L100.613 119.551H100.617V119.548Z" fill="#2F2E43"/>
<path d="M115.478 144.648L115.216 145.078L107.886 157.06L97.0169 174.837L94.8148 178.437L86.7853 191.57C86.7853 191.57 84.1791 195.235 79.7821 199.934L79.7676 199.949C78.1697 201.652 76.3388 203.49 74.3114 205.336C74.2969 205.354 74.2823 205.368 74.2641 205.379C71.789 207.636 69.0227 209.904 66.0308 211.96C64.8005 212.808 63.5338 213.616 62.238 214.373C61.9723 214.242 61.7102 214.104 61.4482 213.969C48.9926 207.501 37.891 198.787 28.6821 188.363C38.295 173.01 57.3169 155.793 69.5723 145.54C76.5063 139.734 85.7697 137.547 94.5636 139.651L98.8951 140.684L99.7322 140.885L115.478 144.648Z" fill="#4D5260"/>
<path d="M149.678 140.954C144.958 139.254 132.462 139.247 126.856 141.139C125.768 141.507 125.109 142.613 125.299 143.745L125.521 145.089C125.033 145.016 124.556 144.877 124.105 144.67C122.769 144.058 120.137 143.229 117.48 144.553C115.624 145.478 114.317 147.222 113.859 149.249C112.763 154.097 115.526 156.78 115.526 156.78L119.205 160.234C122.288 163.124 125.652 165.701 129.244 167.921L129.317 167.965L128.007 160.081C127.268 161.381 125.597 161.806 124.327 161.02C121.116 159.033 115.871 155.051 116.508 150.53C116.952 147.378 118.703 146.708 120.385 146.85C122.267 147.01 123.908 148.193 124.713 149.9C124.905 150.308 125.222 150.643 125.615 150.861L126.562 151.378L129.335 168.089C129.459 168.839 129.939 169.487 130.62 169.821C137.143 173.021 144.182 171.361 146.617 170.615C147.174 170.444 147.651 170.076 147.949 169.574L148.474 168.704C148.656 168.405 148.765 168.067 148.801 167.721L151.222 143.4C151.327 142.326 150.69 141.321 149.675 140.954L149.678 140.954Z" fill="#6C63FF"/>
<path d="M138.377 143.28C144.434 143.28 149.344 142.817 149.344 142.246C149.344 141.675 144.434 141.212 138.377 141.212C132.32 141.212 127.41 141.675 127.41 142.246C127.41 142.817 132.32 143.28 138.377 143.28Z" fill="#DEDFE0"/>
<path d="M116.468 162.964C122.419 158.41 124.774 151.564 121.728 147.673C118.685 143.782 111.394 144.317 105.44 148.874C103.037 150.661 101.115 153.013 99.845 155.731L74.8901 175.347L84.7978 187.198L108.348 166.6C111.329 166.065 114.113 164.817 116.465 162.964H116.468Z" fill="#A0616A"/>
<path d="M99.9579 180.006L90.0866 162.644L54.1648 179.547L74.2641 205.383L99.9579 180.006Z" fill="#4D5260"/>
<path opacity="0.1" d="M78.4281 168.129C78.4281 168.129 52.2429 187.3 53.2111 187.194C54.1793 187.089 67.0899 179.988 67.0899 179.988L78.4281 168.129Z" fill="#272223"/>
</g>
<defs>
<clipPath id="clip0_88_361">
<rect width="227" height="226.993" fill="white"/>
</clipPath>
</defs>
</svg>
