<svg width="295" height="166" viewBox="0 0 295 166" fill="none" xmlns="http://www.w3.org/2000/svg">
<g clip-path="url(#clip0_16_137)">
<path d="M294.67 5.08451H111.51V91.9971H294.67V5.08451Z" fill="#E6E6E6"/>
<path d="M289.433 12.5374H116.748V85.0513H289.433V12.5374Z" fill="white"/>
<path d="M294.592 0.0630569H111.432V7.84423H294.592V0.0630569Z" fill="#6C63FF"/>
<path d="M117.214 5.10443C118.011 5.10443 118.657 4.45873 118.657 3.66221C118.657 2.8657 118.011 2.22 117.214 2.22C116.418 2.22 115.772 2.8657 115.772 3.66221C115.772 4.45873 116.418 5.10443 117.214 5.10443Z" fill="white"/>
<path d="M122.689 5.10443C123.485 5.10443 124.131 4.45873 124.131 3.66221C124.131 2.8657 123.485 2.22 122.689 2.22C121.892 2.22 121.246 2.8657 121.246 3.66221C121.246 4.45873 121.892 5.10443 122.689 5.10443Z" fill="white"/>
<path d="M128.163 5.10443C128.96 5.10443 129.605 4.45873 129.605 3.66221C129.605 2.8657 128.96 2.22 128.163 2.22C127.367 2.22 126.721 2.8657 126.721 3.66221C126.721 4.45873 127.367 5.10443 128.163 5.10443Z" fill="white"/>
<path d="M193.985 29.7463C193.8 29.7463 193.622 29.8199 193.491 29.951C193.36 30.082 193.286 30.2597 193.286 30.445C193.286 30.6303 193.36 30.808 193.491 30.9391C193.622 31.0701 193.8 31.1437 193.985 31.1437H232.324C232.509 31.1437 232.687 31.0701 232.818 30.9391C232.949 30.808 233.023 30.6303 233.023 30.445C233.023 30.2597 232.949 30.082 232.818 29.951C232.687 29.8199 232.509 29.7463 232.324 29.7463H193.985Z" fill="#E6E6E6"/>
<path d="M193.985 33.9389C193.8 33.9393 193.623 34.0131 193.492 34.1441C193.361 34.2751 193.288 34.4525 193.288 34.6376C193.288 34.8226 193.361 35.0001 193.492 35.1311C193.623 35.2621 193.8 35.3359 193.985 35.3363H213.558C213.743 35.3359 213.92 35.2621 214.051 35.1311C214.182 35.0001 214.255 34.8226 214.255 34.6376C214.255 34.4525 214.182 34.2751 214.051 34.1441C213.92 34.0131 213.743 33.9393 213.558 33.9389H193.985Z" fill="#E6E6E6"/>
<path d="M193.02 54.2316C192.835 54.2316 192.657 54.3052 192.526 54.4362C192.395 54.5672 192.322 54.745 192.322 54.9303C192.322 55.1156 192.395 55.2933 192.526 55.4243C192.657 55.5553 192.835 55.629 193.02 55.629H264.906C265.091 55.629 265.269 55.5553 265.4 55.4243C265.531 55.2933 265.605 55.1156 265.605 54.9303C265.605 54.745 265.531 54.5672 265.4 54.4362C265.269 54.3052 265.091 54.2316 264.906 54.2316H193.02Z" fill="#E6E6E6"/>
<path d="M193.02 58.4241C192.835 58.4245 192.658 58.4983 192.527 58.6293C192.397 58.7603 192.323 58.9378 192.323 59.1228C192.323 59.3079 192.397 59.4854 192.527 59.6164C192.658 59.7473 192.835 59.8211 193.02 59.8215H246.14C246.325 59.8211 246.502 59.7473 246.633 59.6164C246.764 59.4854 246.837 59.3079 246.837 59.1228C246.837 58.9378 246.764 58.7603 246.633 58.6293C246.502 58.4983 246.325 58.4245 246.14 58.4241H193.02Z" fill="#E6E6E6"/>
<path d="M193.02 62.5218C192.835 62.5222 192.658 62.596 192.527 62.727C192.397 62.858 192.323 63.0355 192.323 63.2205C192.323 63.4056 192.397 63.5831 192.527 63.7141C192.658 63.845 192.835 63.9188 193.02 63.9192H264.906C265.091 63.9188 265.268 63.845 265.399 63.7141C265.53 63.5831 265.603 63.4056 265.603 63.2205C265.603 63.0355 265.53 62.858 265.399 62.727C265.268 62.596 265.091 62.5222 264.906 62.5218H193.02Z" fill="#E6E6E6"/>
<path d="M193.02 66.7144C192.835 66.7148 192.658 66.7886 192.527 66.9196C192.397 67.0506 192.323 67.2281 192.323 67.4131C192.323 67.5981 192.397 67.7756 192.527 67.9066C192.658 68.0376 192.835 68.1114 193.02 68.1118H246.14C246.325 68.1114 246.502 68.0376 246.633 67.9066C246.764 67.7756 246.837 67.5981 246.837 67.4131C246.837 67.2281 246.764 67.0506 246.633 66.9196C246.502 66.7886 246.325 66.7148 246.14 66.7144H193.02Z" fill="#E6E6E6"/>
<path d="M155.438 57.0671C158.798 57.0671 161.522 54.3433 161.522 50.9832C161.522 47.6231 158.798 44.8992 155.438 44.8992C152.078 44.8992 149.354 47.6231 149.354 50.9832C149.354 54.3433 152.078 57.0671 155.438 57.0671Z" fill="#A0616A"/>
<path d="M153.512 46.116C153.512 46.116 156.351 46.8765 157.821 47.1807C159.291 47.4849 159.139 46.623 159.139 46.623C159.139 46.623 161.066 46.8765 160.965 46.6737C160.863 46.4709 161.776 45.4062 160.711 44.1894C159.646 42.9726 159.951 42.06 159.951 42.06H159.038L158.784 41.7051H157.365C157.365 41.7051 155.795 40.3288 153.007 40.7344C150.218 41.14 146.921 42.2121 146.616 43.8852C146.575 44.1121 146.521 44.3642 146.458 44.6305C145.695 47.8496 147.315 50.8616 148.996 53.7113C149.409 54.4116 151.406 55.9388 151.355 54.891C151.304 53.8433 149.557 51.4901 150.774 51.338C151.991 51.1859 154.069 48.0933 153.512 46.116Z" fill="#1A1F2D"/>
<path d="M151.987 70.6516C150.812 70.5576 149.648 70.3663 148.505 70.0795L148.569 68.8662L149.102 59.2193L149.106 59.1453H159.824L161.505 68.0278L161.732 69.2262C161.288 69.3989 160.84 69.5616 160.381 69.7047C160.376 69.7047 160.376 69.7096 160.371 69.7096C159.735 69.9068 159.089 70.0795 158.438 70.2225C157.572 70.4093 156.696 70.5443 155.814 70.6269C155.132 70.6946 154.448 70.7275 153.762 70.7256C153.171 70.7256 152.574 70.7009 151.987 70.6516Z" fill="#6C63FF"/>
<path d="M145.097 68.9353C144.653 68.7429 144.224 68.5358 143.8 68.3188L143.617 68.2251C143.494 68.161 143.366 68.0919 143.243 68.0228C143.075 67.9292 142.912 67.8355 142.754 67.7418C142.601 67.653 142.444 67.5593 142.291 67.4656C142.281 67.4606 142.276 67.4557 142.266 67.4557C141.733 67.1154 141.211 66.7652 140.707 66.3855C140.624 66.3213 140.54 66.2572 140.456 66.1931L140.367 64.7727L140.495 64.6938L149.102 59.2193L149.22 59.1453L149.23 59.1404L150.443 59.1453V63.663C151.129 64.6543 151.592 66.7307 151.878 69.4482C151.918 69.8378 151.952 70.2373 151.987 70.6516C150.812 70.5576 149.648 70.3663 148.505 70.0795C148.382 70.0548 148.263 70.0252 148.14 69.9907C147.421 69.8026 146.713 69.5754 146.019 69.3101C145.807 69.2312 145.6 69.1473 145.393 69.0635L145.373 69.0536C145.284 69.0142 145.186 68.9747 145.097 68.9353Z" fill="#4D5260"/>
<path d="M143.243 68.0229C143.075 67.9292 142.912 67.8355 142.754 67.7418C142.601 67.653 142.444 67.5593 142.291 67.4656C142.281 67.4606 142.276 67.4557 142.266 67.4557C141.733 67.1154 141.211 66.7652 140.707 66.3855C140.624 66.3214 140.54 66.2572 140.456 66.1931C140.417 66.1586 140.377 66.129 140.333 66.0945C140.017 65.8528 139.711 65.6013 139.415 65.335C139.401 65.3251 139.391 65.3103 139.376 65.3005C139.675 65.0707 140.01 64.8923 140.367 64.7727L140.717 64.8763L143.213 65.6259L143.228 66.637L143.243 68.0229Z" fill="#2F2E41"/>
<path d="M164.258 68.0377C164.109 68.1166 163.962 68.1955 163.814 68.2695C163.779 68.2892 163.75 68.304 163.72 68.3188C163.523 68.4174 163.33 68.5161 163.133 68.6098C163.128 68.6147 163.118 68.6147 163.118 68.6196C163.108 68.6246 163.094 68.6295 163.084 68.6345C162.64 68.8465 162.191 69.0438 161.732 69.2263C161.288 69.3989 160.84 69.5617 160.381 69.7047C160.376 69.7047 160.376 69.7096 160.371 69.7096C159.735 69.9069 159.089 70.0795 158.438 70.2225C158.43 69.8174 158.484 69.4134 158.596 69.024L158.6 68.955L159.025 62.0897L158.457 59.1453L160.085 58.9037L169.037 63.7222C169.037 63.7222 168.05 64.7086 164.001 66.8096C163.643 66.9954 164.169 67.6135 164.258 68.0377Z" fill="#4D5260"/>
<path d="M155.706 69.4433C155.064 69.5024 154.413 69.5321 153.762 69.5321C153.131 69.5321 152.505 69.5074 151.878 69.4482C151.918 69.8378 151.952 70.2373 151.987 70.6516C152.574 70.7009 153.17 70.7256 153.762 70.7256C154.447 70.7275 155.132 70.6946 155.814 70.6269C156.696 70.5443 157.572 70.4093 158.438 70.2225C158.43 69.8174 158.484 69.4134 158.596 69.0241L158.6 68.955C157.648 69.1867 156.681 69.3499 155.706 69.4433ZM174.343 41.7651C173.301 38.7714 171.618 36.041 169.413 33.7644C167.207 31.4877 164.531 29.7196 161.571 28.5834C158.612 27.4472 155.441 26.9701 152.278 27.1856C149.115 27.401 146.038 28.3037 143.26 29.8307C140.482 31.3577 138.07 33.4723 136.194 36.027C134.317 38.5817 133.02 41.515 132.393 44.6225C131.767 47.7299 131.826 50.9366 132.566 54.019C133.306 57.1014 134.709 59.9852 136.678 62.4695C136.875 62.7161 137.078 62.9627 137.285 63.1994C137.304 63.2191 137.314 63.2339 137.329 63.2487C137.838 63.836 138.38 64.3941 138.952 64.9207C139.09 65.0489 139.233 65.1771 139.376 65.3004C139.391 65.3103 139.4 65.3251 139.415 65.335C139.711 65.6013 140.017 65.8528 140.332 66.0945C140.377 66.129 140.416 66.1586 140.456 66.1931C140.54 66.2572 140.624 66.3214 140.707 66.3855C141.21 66.7652 141.733 67.1154 142.266 67.4557C142.276 67.4557 142.281 67.4606 142.291 67.4656C142.443 67.5593 142.601 67.6529 142.754 67.7417C142.912 67.8354 143.075 67.9292 143.242 68.0228C143.366 68.0919 143.494 68.1609 143.617 68.2251L143.8 68.3188C144.224 68.5358 144.653 68.7429 145.097 68.9353C145.186 68.9747 145.284 69.0142 145.373 69.0536L145.393 69.0635C145.6 69.1473 145.807 69.2312 146.019 69.3101C146.713 69.5754 147.421 69.8026 148.14 69.9907C148.263 70.0252 148.382 70.0548 148.505 70.0795C149.648 70.3663 150.812 70.5576 151.987 70.6516C152.574 70.7009 153.17 70.7256 153.762 70.7256C154.447 70.7275 155.132 70.6946 155.814 70.6269C156.696 70.5443 157.572 70.4093 158.438 70.2225C159.089 70.0795 159.735 69.9068 160.371 69.7096C160.376 69.7096 160.376 69.7047 160.381 69.7047C160.84 69.5616 161.288 69.3989 161.732 69.2263C162.191 69.0438 162.64 68.8465 163.084 68.6344C163.094 68.6295 163.108 68.6246 163.118 68.6196C163.118 68.6147 163.128 68.6147 163.133 68.6098C163.33 68.5161 163.523 68.4174 163.72 68.3188C163.75 68.304 163.779 68.2892 163.814 68.2695C163.962 68.1955 164.109 68.1166 164.257 68.0377C164.267 68.0327 164.272 68.0278 164.282 68.0229C164.672 67.8059 165.057 67.579 165.436 67.3373C165.54 67.2732 165.643 67.2091 165.747 67.1351C165.9 67.0414 166.048 66.9378 166.191 66.8343C166.383 66.7011 166.575 66.563 166.763 66.42C166.825 66.38 166.885 66.3355 166.94 66.2868C167.399 65.9416 167.843 65.5766 168.267 65.1919C171.484 62.326 173.778 58.5704 174.859 54.4003C175.941 50.2303 175.761 45.8331 174.343 41.7651ZM167.897 63.9195C167.363 64.4218 166.804 64.8959 166.22 65.3399C166.092 65.4385 165.959 65.5372 165.826 65.6259C165.698 65.7246 165.569 65.8183 165.436 65.9071C165.323 65.986 165.209 66.0649 165.091 66.1389C165.081 66.1487 165.066 66.1536 165.057 66.1635C164.973 66.2227 164.884 66.277 164.8 66.3312C164.539 66.494 164.267 66.6567 164.001 66.8096C163.937 66.8441 163.878 66.8836 163.814 66.9181C163.779 66.9378 163.745 66.9576 163.705 66.9773C163.557 67.0611 163.409 67.1351 163.261 67.214C163.242 67.2288 163.217 67.2337 163.197 67.2486C163.19 67.2497 163.183 67.2532 163.177 67.2584C163.074 67.3127 162.97 67.362 162.867 67.4113C162.778 67.4557 162.694 67.5001 162.605 67.5395C162.245 67.7122 161.875 67.8749 161.505 68.0278C161.116 68.1856 160.721 68.3286 160.322 68.4618C160.223 68.4963 160.12 68.5358 160.016 68.5654C159.547 68.7133 159.079 68.8465 158.6 68.955C157.648 69.1867 156.681 69.3499 155.706 69.4433C155.064 69.5024 154.413 69.5321 153.762 69.5321C153.131 69.5321 152.505 69.5074 151.878 69.4482C150.761 69.346 149.654 69.1513 148.569 68.8662C148.529 68.8563 148.485 68.8465 148.446 68.8366C147.556 68.6045 146.684 68.3079 145.837 67.9489C145.792 67.9292 145.743 67.9143 145.703 67.8946C145.654 67.8749 145.61 67.8601 145.57 67.8404C145.521 67.8206 145.477 67.8009 145.432 67.7812C145.062 67.6184 144.702 67.4409 144.342 67.2584L144.174 67.1696C143.854 67.0019 143.538 66.8293 143.228 66.637C143.119 66.5778 143.006 66.5088 142.897 66.4397C142.774 66.3657 142.651 66.2868 142.532 66.2079C142.503 66.1882 142.473 66.1684 142.443 66.1487C142.167 65.9613 141.886 65.7739 141.62 65.5717C141.433 65.4336 141.25 65.3004 141.067 65.1574C140.949 65.0686 140.831 64.9749 140.717 64.8763C140.643 64.822 140.569 64.7579 140.495 64.6938C140.397 64.61 140.298 64.5261 140.2 64.4373C140.047 64.314 139.904 64.1759 139.765 64.0477C139.21 63.5359 138.685 62.9925 138.192 62.4201C138.024 62.2327 137.867 62.0453 137.714 61.8481C137.678 61.8092 137.645 61.768 137.615 61.7248C135.132 58.5903 133.615 54.801 133.249 50.819C132.883 46.8371 133.684 42.8347 135.554 39.3001C137.424 35.7655 140.282 32.8516 143.78 30.9137C147.277 28.9759 151.264 28.098 155.252 28.387C159.24 28.6761 163.058 30.1196 166.24 32.5416C169.422 34.9635 171.83 38.2592 173.171 42.0264C174.511 45.7937 174.727 49.8697 173.79 53.7573C172.854 57.6448 170.806 61.1758 167.897 63.9195Z" fill="#EDE7E3"/>
<path d="M53.719 161.712L57.7089 161.711L59.6069 146.322L53.7183 146.322L53.719 161.712Z" fill="#A0616A"/>
<path d="M52.7014 160.409L60.5589 160.409H60.5593C61.8873 160.409 63.1609 160.936 64.1 161.875C65.039 162.814 65.5666 164.088 65.5667 165.416V165.579L52.7016 165.579L52.7014 160.409Z" fill="#4D5260"/>
<path d="M68.6895 161.712L72.6795 161.711L74.5775 146.322L68.6888 146.322L68.6895 161.712Z" fill="#A0616A"/>
<path d="M67.6719 160.409L75.5294 160.409H75.5298C76.8578 160.409 78.1314 160.936 79.0705 161.875C80.0096 162.814 80.5372 164.088 80.5373 165.416V165.579L67.6721 165.579L67.6719 160.409Z" fill="#4D5260"/>
<path d="M41.6126 100.899C41.9391 100.55 42.185 100.133 42.333 99.6777C42.4809 99.2227 42.5273 98.7408 42.4689 98.266C42.4104 97.7911 42.2486 97.3349 41.9947 96.9293C41.7409 96.5238 41.4012 96.1788 40.9996 95.9188L43.7719 84.6242L38.079 86.6527L36.3193 97.0672C35.9271 97.7708 35.8066 98.5938 35.9807 99.3803C36.1548 100.167 36.6113 100.862 37.2638 101.334C37.9163 101.807 38.7193 102.023 39.5208 101.943C40.3223 101.863 41.0666 101.492 41.6126 100.899Z" fill="#9E616A"/>
<path d="M83.9665 99.923C83.6399 99.5734 83.394 99.1564 83.2461 98.7014C83.0981 98.2464 83.0517 97.7645 83.1102 97.2896C83.1686 96.8148 83.3304 96.3585 83.5843 95.953C83.8381 95.5475 84.1778 95.2025 84.5794 94.9424L81.8072 83.6479L87.5 85.6764L89.2598 96.0909C89.652 96.7945 89.7724 97.6175 89.5983 98.404C89.4243 99.1904 88.9677 99.8857 88.3153 100.358C87.6628 100.83 86.8597 101.047 86.0582 100.967C85.2567 100.887 84.5125 100.515 83.9665 99.923Z" fill="#9E616A"/>
<path d="M46.8622 92.9822L52.3925 157.767L60.4844 157.029L63.7229 106.96L66.6057 126.785L67.1831 158.277L74.5056 157.789L78.5717 123.91L77.5742 91.0995L49.7756 88.2844L46.8622 92.9822Z" fill="#4D5260"/>
<path d="M62.0752 34.0293C66.7099 34.0293 70.467 30.2721 70.467 25.6374C70.467 21.0027 66.7099 17.2456 62.0752 17.2456C57.4405 17.2456 53.6833 21.0027 53.6833 25.6374C53.6833 30.2721 57.4405 34.0293 62.0752 34.0293Z" fill="#A0616A"/>
<path d="M59.4178 18.9239C59.4178 18.9239 63.334 19.9729 65.362 20.3925C67.3901 20.8121 67.1803 19.6233 67.1803 19.6233C67.1803 19.6233 69.8377 19.9729 69.6978 19.6932C69.5579 19.4135 70.8167 17.9449 69.3482 16.2665C67.8796 14.5881 68.2992 13.3293 68.2992 13.3293H67.0404L66.6907 12.8398H64.7326C64.7326 12.8398 62.5677 10.9415 58.7215 11.5009C54.8752 12.0604 50.3265 13.5391 49.9069 15.8469C49.85 16.1599 49.7751 16.5077 49.6881 16.875C48.6364 21.3153 50.8711 25.4698 53.1889 29.4005C53.7585 30.3665 56.5138 32.4729 56.4433 31.0277C56.3728 29.5825 53.963 26.3368 55.6414 26.127C57.3198 25.9172 60.187 21.6513 59.4178 18.9239Z" fill="#1A1F2D"/>
<path d="M53.3426 36.8959H68.1217L78.5717 92.0835C78.5717 92.0835 69.4612 92.8625 64.2541 94.8152C59.0469 96.7679 50.3906 90.3547 50.3906 90.3547L53.3426 36.8959Z" fill="#6C63FF"/>
<path d="M55.1877 43.1282V36.8959L53.5143 36.8857L41.2883 44.659L43.9412 87.2478C43.9412 87.2478 47.0811 101.456 51.8436 101.309C56.606 101.161 60.2782 50.5097 55.1877 43.1282Z" fill="#4D5260"/>
<path d="M45.2154 45.8355L41.2883 44.659C41.2883 44.659 38.3811 45.5101 38.3811 48.4391C38.3811 51.3681 35.8762 92.9823 35.8762 92.9823L43.8336 93.6855L45.5409 72.5221L45.2154 45.8355Z" fill="#4D5260"/>
<path d="M67.0203 40.9538L66.2375 36.8959L68.4848 36.5603L76.621 39.8148C76.621 39.8148 83.9435 93.3507 80.6891 94.9779C77.4346 96.6052 75.2372 95.3444 75.2372 95.3444C75.2372 95.3444 64.5329 55.8593 66.4275 50.522L67.0203 40.9538Z" fill="#4D5260"/>
<path d="M70.9257 40.6284L72.3142 40.024C72.3142 40.024 76.3898 38.0044 78.7021 42.0827C81.0145 46.161 89.1507 91.7235 89.1507 91.7235L82.4561 92.9823L77.4512 76.5851L70.9257 40.6284Z" fill="#4D5260"/>
</g>
<defs>
<clipPath id="clip0_16_137">
<rect width="294.141" height="165.699" fill="white" transform="translate(0.529327 0.0630493)"/>
</clipPath>
</defs>
</svg>
