<svg width="572" height="322" viewBox="0 0 572 322" fill="none" xmlns="http://www.w3.org/2000/svg">
<g clip-path="url(#clip0_22_1128)">
<path d="M571.597 9.75809H215.667V178.653H571.597V9.75809Z" fill="#E6E6E6"/>
<path d="M561.42 24.2411H225.845V165.156H561.42V24.2411Z" fill="white"/>
<path d="M571.445 0H215.515V15.121H571.445V0Z" fill="#6C63FF"/>
<path d="M226.752 9.7968C228.299 9.7968 229.554 8.54202 229.554 6.99418C229.554 5.44633 228.299 4.19156 226.752 4.19156C225.204 4.19156 223.949 5.44633 223.949 6.99418C223.949 8.54202 225.204 9.7968 226.752 9.7968Z" fill="white"/>
<path d="M237.389 9.7968C238.937 9.7968 240.192 8.54202 240.192 6.99418C240.192 5.44633 238.937 4.19156 237.389 4.19156C235.842 4.19156 234.587 5.44633 234.587 6.99418C234.587 8.54202 235.842 9.7968 237.389 9.7968Z" fill="white"/>
<path d="M248.028 9.7968C249.575 9.7968 250.83 8.54202 250.83 6.99418C250.83 5.44633 249.575 4.19156 248.028 4.19156C246.48 4.19156 245.225 5.44633 245.225 6.99418C245.225 8.54202 246.48 9.7968 248.028 9.7968Z" fill="white"/>
<path d="M375.938 57.6829C375.578 57.6829 375.233 57.8259 374.978 58.0805C374.724 58.3352 374.581 58.6805 374.581 59.0406C374.581 59.4007 374.724 59.7461 374.978 60.0007C375.233 60.2553 375.578 60.3984 375.938 60.3984H450.441C450.802 60.3984 451.147 60.2553 451.402 60.0007C451.656 59.7461 451.799 59.4007 451.799 59.0406C451.799 58.6805 451.656 58.3352 451.402 58.0805C451.147 57.8259 450.802 57.6829 450.441 57.6829H375.938Z" fill="#E6E6E6"/>
<path d="M375.938 65.8302C375.579 65.8309 375.234 65.9743 374.98 66.2289C374.726 66.4834 374.584 66.8283 374.584 67.1879C374.584 67.5475 374.726 67.8924 374.98 68.147C375.234 68.4015 375.579 68.5449 375.938 68.5457H413.974C414.333 68.5449 414.678 68.4015 414.932 68.147C415.186 67.8924 415.329 67.5475 415.329 67.1879C415.329 66.8283 415.186 66.4834 414.932 66.2289C414.678 65.9743 414.333 65.8309 413.974 65.8302H375.938Z" fill="#E6E6E6"/>
<path d="M374.064 105.264C373.704 105.264 373.358 105.408 373.104 105.662C372.849 105.917 372.706 106.262 372.706 106.622C372.706 106.982 372.849 107.328 373.104 107.582C373.358 107.837 373.704 107.98 374.064 107.98H513.757C514.117 107.98 514.463 107.837 514.717 107.582C514.972 107.328 515.115 106.982 515.115 106.622C515.115 106.262 514.972 105.917 514.717 105.662C514.463 105.408 514.117 105.264 513.757 105.264H374.064Z" fill="#E6E6E6"/>
<path d="M374.064 113.412C373.704 113.413 373.359 113.556 373.105 113.81C372.851 114.065 372.709 114.41 372.709 114.77C372.709 115.129 372.851 115.474 373.105 115.729C373.359 115.983 373.704 116.127 374.064 116.127H477.289C477.649 116.127 477.994 115.983 478.248 115.729C478.502 115.474 478.644 115.129 478.644 114.77C478.644 114.41 478.502 114.065 478.248 113.81C477.994 113.556 477.649 113.413 477.289 113.412H374.064Z" fill="#E6E6E6"/>
<path d="M374.064 121.375C373.704 121.376 373.359 121.519 373.105 121.773C372.851 122.028 372.709 122.373 372.709 122.733C372.709 123.092 372.851 123.437 373.105 123.692C373.359 123.946 373.704 124.089 374.064 124.09H513.757C514.117 124.089 514.461 123.946 514.715 123.692C514.969 123.437 515.112 123.092 515.112 122.733C515.112 122.373 514.969 122.028 514.715 121.773C514.461 121.519 514.117 121.376 513.757 121.375H374.064Z" fill="#E6E6E6"/>
<path d="M374.064 129.522C373.704 129.523 373.359 129.666 373.105 129.921C372.851 130.175 372.709 130.52 372.709 130.88C372.709 131.239 372.851 131.584 373.105 131.839C373.359 132.093 373.704 132.237 374.064 132.238H477.289C477.649 132.237 477.994 132.093 478.248 131.839C478.502 131.584 478.644 131.239 478.644 130.88C478.644 130.52 478.502 130.175 478.248 129.921C477.994 129.666 477.649 129.523 477.289 129.522H374.064Z" fill="#E6E6E6"/>
<path d="M301.031 110.775C307.56 110.775 312.854 105.482 312.854 98.9519C312.854 92.4223 307.56 87.129 301.031 87.129C294.501 87.129 289.208 92.4223 289.208 98.9519C289.208 105.482 294.501 110.775 301.031 110.775Z" fill="#A0616A"/>
<path d="M297.287 89.4936C297.287 89.4936 302.804 90.9715 305.661 91.5626C308.519 92.1538 308.223 90.4789 308.223 90.4789C308.223 90.4789 311.967 90.9715 311.77 90.5774C311.573 90.1833 313.346 88.1143 311.277 85.7497C309.208 83.3851 309.799 81.6117 309.799 81.6117H308.026L307.533 80.922H304.775C304.775 80.922 301.725 78.2475 296.306 79.0357C290.887 79.8239 284.479 81.9073 283.888 85.1586C283.807 85.5995 283.702 86.0895 283.579 86.607C282.098 92.8627 285.246 98.7158 288.511 104.253C289.314 105.614 293.196 108.582 293.096 106.546C292.997 104.51 289.602 99.9372 291.967 99.6416C294.331 99.346 298.371 93.336 297.287 89.4936Z" fill="#1A1F2D"/>
<path d="M294.324 137.173C292.042 136.991 289.778 136.619 287.557 136.061L287.682 133.704L288.717 114.957L288.727 114.813H309.553L312.821 132.074L313.262 134.403C312.4 134.739 311.527 135.055 310.636 135.333C310.626 135.333 310.626 135.343 310.617 135.343C309.381 135.726 308.125 136.061 306.86 136.339C305.177 136.702 303.475 136.965 301.761 137.125C300.436 137.257 299.106 137.321 297.774 137.317C296.624 137.317 295.464 137.269 294.324 137.173Z" fill="#6C63FF"/>
<path d="M280.935 133.838C280.072 133.464 279.238 133.062 278.414 132.64L278.059 132.458C277.82 132.333 277.571 132.199 277.331 132.065C277.005 131.883 276.689 131.701 276.382 131.519C276.085 131.346 275.779 131.164 275.481 130.982C275.462 130.972 275.453 130.963 275.434 130.963C274.399 130.301 273.383 129.621 272.405 128.883C272.242 128.758 272.079 128.634 271.916 128.509L271.744 125.749L271.993 125.595L288.717 114.957L288.947 114.813L288.966 114.804L291.324 114.813V123.592C292.656 125.519 293.557 129.554 294.113 134.835C294.19 135.592 294.257 136.368 294.324 137.173C292.042 136.991 289.778 136.619 287.558 136.061C287.318 136.013 287.088 135.956 286.848 135.889C285.451 135.523 284.076 135.082 282.727 134.566C282.315 134.413 281.912 134.25 281.51 134.087L281.472 134.068C281.299 133.991 281.107 133.915 280.935 133.838Z" fill="#4D5260"/>
<path d="M277.331 132.065C277.005 131.883 276.689 131.701 276.382 131.518C276.085 131.346 275.779 131.164 275.481 130.982C275.462 130.972 275.453 130.963 275.434 130.963C274.398 130.301 273.383 129.621 272.405 128.883C272.242 128.758 272.079 128.634 271.916 128.509C271.84 128.442 271.763 128.384 271.676 128.317C271.063 127.848 270.469 127.359 269.894 126.841C269.865 126.822 269.846 126.793 269.817 126.774C270.398 126.328 271.049 125.981 271.744 125.749L272.424 125.95L277.274 127.407L277.302 129.372L277.331 132.065Z" fill="#2F2E41"/>
<path d="M318.169 132.094C317.881 132.247 317.594 132.4 317.307 132.544C317.239 132.582 317.182 132.611 317.125 132.64C316.741 132.832 316.367 133.023 315.984 133.205C315.974 133.215 315.955 133.215 315.955 133.224C315.936 133.234 315.907 133.244 315.888 133.253C315.026 133.665 314.154 134.049 313.262 134.403C312.4 134.739 311.527 135.055 310.636 135.333C310.626 135.333 310.626 135.343 310.617 135.343C309.381 135.726 308.125 136.061 306.86 136.339C306.845 135.552 306.949 134.767 307.167 134.01L307.176 133.876L308.001 120.535L306.898 114.813L310.061 114.344L327.456 123.707C327.456 123.707 325.539 125.624 317.671 129.707C316.975 130.068 317.997 131.269 318.169 132.094Z" fill="#4D5260"/>
<path d="M301.55 134.825C300.304 134.94 299.039 134.998 297.774 134.998C296.547 134.998 295.33 134.95 294.113 134.835C294.19 135.592 294.257 136.368 294.324 137.173C295.464 137.269 296.624 137.317 297.774 137.317C299.106 137.321 300.436 137.257 301.761 137.125C303.475 136.965 305.177 136.702 306.86 136.339C306.846 135.552 306.949 134.767 307.167 134.01L307.176 133.876C305.326 134.326 303.446 134.644 301.55 134.825ZM337.769 81.0387C335.743 75.221 332.473 69.9151 328.187 65.491C323.9 61.0668 318.7 57.631 312.95 55.4229C307.199 53.2149 301.036 52.2879 294.89 52.7065C288.744 53.1251 282.763 54.8793 277.365 57.8467C271.967 60.8142 267.281 64.9234 263.633 69.8879C259.986 74.8524 257.466 80.5527 256.248 86.5913C255.031 92.6298 255.145 98.8614 256.583 104.851C258.021 110.841 260.748 116.445 264.575 121.273C264.958 121.752 265.351 122.231 265.754 122.691C265.792 122.73 265.811 122.759 265.84 122.787C266.829 123.928 267.882 125.013 268.993 126.036C269.261 126.285 269.539 126.535 269.817 126.774C269.846 126.793 269.865 126.822 269.894 126.841C270.469 127.359 271.063 127.848 271.676 128.317C271.763 128.384 271.84 128.442 271.916 128.509C272.079 128.634 272.242 128.758 272.405 128.883C273.382 129.621 274.398 130.301 275.434 130.963C275.453 130.963 275.462 130.972 275.481 130.982C275.779 131.164 276.085 131.346 276.382 131.518C276.689 131.701 277.006 131.883 277.331 132.065C277.571 132.199 277.82 132.333 278.059 132.458L278.414 132.64C279.238 133.061 280.072 133.464 280.935 133.838C281.107 133.914 281.299 133.991 281.471 134.068L281.51 134.087C281.912 134.25 282.315 134.413 282.727 134.566C284.076 135.082 285.451 135.523 286.848 135.889C287.088 135.956 287.318 136.013 287.557 136.061C289.778 136.619 292.042 136.991 294.324 137.173C295.464 137.269 296.624 137.317 297.774 137.317C299.106 137.321 300.436 137.257 301.761 137.125C303.475 136.965 305.177 136.702 306.86 136.339C308.125 136.061 309.381 135.726 310.617 135.343C310.626 135.343 310.626 135.333 310.636 135.333C311.527 135.055 312.4 134.739 313.262 134.403C314.154 134.049 315.026 133.665 315.888 133.253C315.907 133.244 315.936 133.234 315.955 133.224C315.955 133.215 315.974 133.215 315.984 133.205C316.367 133.023 316.741 132.831 317.125 132.64C317.182 132.611 317.239 132.582 317.307 132.544C317.594 132.4 317.881 132.247 318.169 132.094C318.188 132.084 318.198 132.074 318.217 132.065C318.974 131.643 319.722 131.202 320.46 130.733C320.661 130.608 320.862 130.483 321.064 130.34C321.361 130.157 321.648 129.956 321.926 129.755C322.3 129.496 322.674 129.228 323.038 128.95C323.159 128.872 323.274 128.786 323.383 128.691C324.274 128.02 325.137 127.311 325.961 126.563C332.211 120.994 336.67 113.696 338.771 105.592C340.873 97.4888 340.524 88.9439 337.769 81.0387ZM325.242 124.091C324.205 125.067 323.117 125.988 321.984 126.851C321.735 127.043 321.476 127.234 321.217 127.407C320.968 127.599 320.719 127.781 320.46 127.953C320.24 128.107 320.019 128.26 319.789 128.404C319.77 128.423 319.741 128.432 319.722 128.452C319.559 128.567 319.387 128.672 319.224 128.777C318.715 129.094 318.188 129.41 317.671 129.707C317.546 129.774 317.431 129.851 317.307 129.918C317.239 129.956 317.173 129.995 317.096 130.033C316.808 130.196 316.521 130.34 316.233 130.493C316.195 130.522 316.147 130.531 316.109 130.56C316.094 130.562 316.081 130.569 316.07 130.579C315.869 130.685 315.668 130.78 315.467 130.876C315.294 130.963 315.131 131.049 314.959 131.125C314.259 131.461 313.54 131.777 312.821 132.074C312.064 132.381 311.298 132.659 310.521 132.918C310.329 132.985 310.128 133.061 309.927 133.119C309.016 133.406 308.106 133.665 307.176 133.876C305.326 134.326 303.446 134.644 301.55 134.825C300.304 134.94 299.039 134.998 297.774 134.998C296.547 134.998 295.33 134.95 294.113 134.835C291.942 134.636 289.791 134.258 287.682 133.704C287.605 133.684 287.519 133.665 287.442 133.646C285.713 133.195 284.018 132.619 282.372 131.921C282.286 131.883 282.19 131.854 282.114 131.816C282.018 131.777 281.932 131.748 281.855 131.71C281.759 131.672 281.673 131.633 281.587 131.595C280.868 131.279 280.168 130.934 279.469 130.579L279.142 130.407C278.52 130.081 277.906 129.745 277.302 129.372C277.092 129.257 276.871 129.122 276.66 128.988C276.421 128.844 276.181 128.691 275.951 128.538C275.894 128.499 275.836 128.461 275.779 128.423C275.242 128.059 274.696 127.694 274.178 127.301C273.814 127.033 273.459 126.774 273.105 126.496C272.874 126.324 272.645 126.142 272.424 125.95C272.28 125.845 272.137 125.72 271.993 125.595C271.801 125.433 271.609 125.27 271.418 125.097C271.121 124.857 270.843 124.589 270.574 124.34C269.495 123.345 268.474 122.289 267.517 121.177C267.191 120.813 266.884 120.449 266.588 120.065C266.518 119.99 266.454 119.91 266.396 119.826C261.571 113.735 258.623 106.371 257.911 98.6329C257.2 90.8949 258.756 83.1172 262.39 76.2485C266.024 69.3798 271.578 63.7172 278.375 59.9514C285.172 56.1857 292.919 54.4796 300.669 55.0413C308.419 55.603 315.838 58.4082 322.022 63.1148C328.205 67.8213 332.884 74.2256 335.49 81.5465C338.095 88.8673 338.514 96.7882 336.694 104.343C334.874 111.897 330.895 118.759 325.242 124.091Z" fill="#1A1F2D"/>
<path d="M103.362 314.128L111.116 314.127L114.804 284.221L103.361 284.222L103.362 314.128Z" fill="#A0616A"/>
<path d="M101.385 311.596L116.654 311.596H116.655C119.235 311.596 121.71 312.621 123.535 314.446C125.36 316.271 126.385 318.746 126.386 321.327V321.643L101.385 321.644L101.385 311.596Z" fill="#4D5260"/>
<path d="M132.454 314.128L140.208 314.127L143.896 284.221L132.453 284.222L132.454 314.128Z" fill="#A0616A"/>
<path d="M130.477 311.596L145.746 311.596H145.747C148.327 311.596 150.802 312.621 152.627 314.446C154.452 316.271 155.477 318.746 155.478 321.327V321.643L130.477 321.644L130.477 311.596Z" fill="#4D5260"/>
<path d="M79.8362 195.953C80.4708 195.273 80.9486 194.463 81.2361 193.579C81.5236 192.695 81.6138 191.758 81.5002 190.835C81.3867 189.913 81.0722 189.026 80.5789 188.238C80.0856 187.45 79.4255 186.78 78.6451 186.274L84.0323 164.326L72.9696 168.268L69.5498 188.506C68.7877 189.873 68.5537 191.473 68.892 193.001C69.2303 194.529 70.1174 195.88 71.3854 196.798C72.6533 197.716 74.2139 198.137 75.7714 197.981C77.329 197.826 78.7752 197.104 79.8362 195.953Z" fill="#9E616A"/>
<path d="M162.142 194.056C161.507 193.376 161.029 192.566 160.742 191.682C160.454 190.797 160.364 189.861 160.478 188.938C160.591 188.015 160.906 187.129 161.399 186.341C161.892 185.553 162.552 184.882 163.333 184.377L157.945 162.429L169.008 166.37L172.428 186.609C173.19 187.976 173.424 189.575 173.086 191.104C172.748 192.632 171.86 193.983 170.592 194.901C169.325 195.819 167.764 196.24 166.206 196.084C164.649 195.928 163.203 195.207 162.142 194.056Z" fill="#9E616A"/>
<path d="M90.0375 180.568L100.784 306.463L116.509 305.029L122.803 207.729L128.405 246.256L129.527 307.454L143.756 306.505L151.658 240.669L149.72 176.909L95.6991 171.439L90.0375 180.568Z" fill="#4D5260"/>
<path d="M119.601 66.0058C128.607 66.0058 135.908 58.7046 135.908 49.6981C135.908 40.6916 128.607 33.3904 119.601 33.3904C110.594 33.3904 103.293 40.6916 103.293 49.6981C103.293 58.7046 110.594 66.0058 119.601 66.0058Z" fill="#A0616A"/>
<path d="M114.437 36.6519C114.437 36.6519 122.047 38.6904 125.988 39.5058C129.929 40.3212 129.521 38.0109 129.521 38.0109C129.521 38.0109 134.685 38.6904 134.413 38.1468C134.142 37.6032 136.588 34.7493 133.734 31.4878C130.88 28.2262 131.696 25.7801 131.696 25.7801H129.249L128.57 24.8288H124.765C124.765 24.8288 120.558 21.1398 113.083 22.227C105.609 23.3141 96.7697 26.1878 95.9543 30.6724C95.8437 31.2807 95.6981 31.9565 95.5291 32.6702C93.4852 41.2989 97.8279 49.3724 102.332 57.0107C103.439 58.8879 108.793 62.9813 108.656 60.1729C108.519 57.3644 103.836 51.0571 107.098 50.6494C110.36 50.2417 115.931 41.9519 114.437 36.6519Z" fill="#1A1F2D"/>
<path d="M102.631 71.5765H131.351L151.658 178.821C151.658 178.821 133.954 180.335 123.835 184.13C113.716 187.924 96.8942 175.462 96.8942 175.462L102.631 71.5765Z" fill="#6C63FF"/>
<path d="M106.216 83.6875V71.5765L102.965 71.5567L79.206 86.6624L84.3614 169.424C84.3614 169.424 90.463 197.035 99.7178 196.748C108.973 196.462 116.109 98.0317 106.216 83.6875Z" fill="#4D5260"/>
<path d="M86.8375 88.9486L79.206 86.6624C79.206 86.6624 73.5564 88.3162 73.5564 94.0081C73.5564 99.6999 68.6887 180.568 68.6887 180.568L84.1521 181.934L87.4699 140.808L86.8375 88.9486Z" fill="#4D5260"/>
<path d="M129.211 79.4621L127.689 71.5765L132.056 70.9243L147.867 77.2486C147.867 77.2486 162.097 181.284 155.773 184.446C149.448 187.608 145.178 185.158 145.178 185.158C145.178 185.158 124.377 108.428 128.058 98.0557L129.211 79.4621Z" fill="#4D5260"/>
<path d="M136.8 78.8296L139.498 77.6552C139.498 77.6552 147.418 73.7305 151.912 81.6557C156.405 89.581 172.216 178.122 172.216 178.122L159.207 180.568L149.481 148.703L136.8 78.8296Z" fill="#4D5260"/>
</g>
<defs>
<clipPath id="clip0_22_1128">
<rect width="571.597" height="322" fill="white"/>
</clipPath>
</defs>
</svg>
