<svg width="198" height="75" viewBox="0 0 198 75" fill="none" xmlns="http://www.w3.org/2000/svg">
<path d="M76.3111 8.60515L72.4539 8.21859C71.0589 8.21859 69.9791 8.55473 69.2185 9.22701C68.4055 9.97912 67.8068 11.4203 67.4202 13.5548C67.0378 15.6893 66.6723 18.5297 66.3193 22.0759C65.9706 25.618 65.7983 28.1727 65.7983 29.7399C65.7983 31.3093 66.0504 32.4185 66.5546 33.0677C67.0588 33.719 67.6576 34.0425 68.353 34.0425C69.0526 34.0425 69.6156 34.0341 70.0421 34.0173L71.5547 21.0003C71.6156 20.6641 71.8152 20.4835 72.1514 20.4541L76.4707 20.2944C76.8846 20.307 77.0926 20.4877 77.0926 20.8406L75.1598 38.0593C75.0968 38.3955 74.893 38.5867 74.5464 38.6308C72.5064 38.9375 70.0253 39.093 67.1009 39.093C63.5987 39.093 61.3487 37.4018 60.3529 34.0173C60.0777 33.0887 59.9411 32.1643 59.9411 31.2441C59.9411 30.326 59.9705 29.2399 60.0335 27.9836C60.2184 23.4856 60.752 18.8154 61.6386 13.975C62.2374 10.6094 62.9706 8.2438 63.8403 6.88244C64.7584 5.46015 65.8614 4.46644 67.1513 3.8992C68.7585 3.19331 70.4791 2.84036 72.311 2.84036C74.1472 2.84036 75.372 2.89078 75.9833 2.99163C76.5989 3.09247 76.9455 3.15129 77.0254 3.1681C77.204 3.23112 77.2943 3.4202 77.2943 3.73953L76.7901 8.0085C76.7271 8.40767 76.5674 8.60515 76.3111 8.60515Z" fill="#EDE7E3"/>
<path d="M97.4966 11.6808L94.5134 38.1518C94.463 38.5509 94.2634 38.7568 93.9167 38.7736L89.278 38.9333C88.9524 38.8997 88.7906 38.7547 88.7906 38.4963L89.2276 35.3702C88.5259 36.5698 87.7591 37.4921 86.925 38.135C86.0889 38.7736 85.1519 39.093 84.1099 39.093C83.0678 39.093 82.1792 38.9123 81.446 38.5551C80.7107 38.198 80.1098 37.7232 79.6392 37.1349C79.1728 36.5425 78.7989 35.8324 78.5132 35.0089C77.9753 33.5425 77.7064 31.534 77.7064 28.9836C77.7064 26.4352 77.8766 24.2734 78.219 22.4961C78.5657 20.7209 78.8682 19.37 79.1266 18.4456C79.3892 17.517 79.7359 16.5632 80.1686 15.5884C80.6056 14.6094 81.1014 13.788 81.6561 13.1262C82.9103 11.6304 84.4922 10.8825 86.404 10.8825C87.8263 10.8825 88.9125 11.2249 89.6646 11.9077C90.4146 12.5863 91.0427 13.5884 91.547 14.9161L91.8243 11.7985C91.8516 11.4623 92.0428 11.2774 92.3957 11.2438L96.9 11.0842C97.297 11.1178 97.4966 11.3174 97.4966 11.6808ZM83.488 28.3281C83.488 31.9878 84.467 33.8156 86.4292 33.8156C87.2864 33.8156 87.9797 33.4206 88.5133 32.6307C89.0511 31.8408 89.5154 30.2609 89.9083 27.8911C90.299 25.5171 90.4965 23.786 90.4965 22.6978C90.4965 21.6116 90.4881 20.9246 90.4713 20.6389C90.4545 20.349 90.423 19.9624 90.3789 19.4792C90.3326 18.9981 90.2486 18.5927 90.1268 18.2607C90.0028 17.9309 89.841 17.5969 89.6394 17.2607C89.2402 16.6052 88.5994 16.2775 87.715 16.2775C86.8284 16.2775 86.1267 16.6725 85.6057 17.4624C85.0847 18.2481 84.6771 19.2986 84.3872 20.6137C83.7863 23.4331 83.488 26.0045 83.488 28.3281Z" fill="#EDE7E3"/>
<path d="M107.182 0.613454L105.249 15.2859C106.016 13.8636 106.84 12.7733 107.72 12.017C108.598 11.2607 109.585 10.8825 110.678 10.8825C111.77 10.8825 112.682 11.0632 113.417 11.4203C114.157 11.7796 114.758 12.2523 115.224 12.8405C115.689 13.4288 116.075 14.1389 116.384 14.9666C116.905 16.4351 117.165 18.4435 117.165 20.9919C117.165 23.5423 116.991 25.7041 116.644 27.4794C116.302 29.2567 115.999 30.6055 115.737 31.5299C115.478 32.4542 115.132 33.408 114.695 34.387C114.258 35.3681 113.764 36.1854 113.216 36.8409C111.959 38.343 110.487 39.093 108.796 39.093C107.102 39.093 105.882 38.7379 105.132 38.0257C104.386 37.3157 103.745 36.24 103.207 34.7988L102.955 38.1518C102.922 38.551 102.73 38.7569 102.384 38.7737L97.745 38.9333C97.4089 38.8997 97.2408 38.7547 97.2408 38.4963L101.51 0.77312C101.537 0.560932 101.585 0.40967 101.653 0.319332C101.724 0.224793 101.867 0.172271 102.081 0.159666L106.577 0C106.98 0.0462194 107.182 0.250004 107.182 0.613454ZM111.375 21.6474C111.375 17.9897 110.396 16.1599 108.443 16.1599C107.585 16.1599 106.888 16.5549 106.35 17.3448C105.817 18.1305 105.354 19.7104 104.964 22.0843C104.571 24.4541 104.375 26.1831 104.375 27.2693C104.375 28.3575 104.384 29.0466 104.401 29.3365C104.417 29.6286 104.447 30.0151 104.493 30.4962C104.537 30.9794 104.621 31.3849 104.745 31.7147C104.867 32.0404 105.027 32.366 105.224 32.6895C105.621 33.3618 106.262 33.698 107.148 33.698C108.039 33.698 108.745 33.3072 109.266 32.5215C109.787 31.7315 110.184 30.679 110.459 29.3618C111.069 26.5445 111.375 23.973 111.375 21.6474Z" fill="#EDE7E3"/>
<path d="M132.93 16.9414L130.476 16.6893C128.487 16.6893 126.816 17.0884 125.468 17.8826L123.199 38.1266C123.136 38.5131 122.947 38.7211 122.627 38.7484L117.989 38.9333C117.652 38.8997 117.484 38.7547 117.484 38.4963L120.51 11.7985C120.571 11.4623 120.762 11.2774 121.081 11.2438L125.56 11.0842C125.974 11.101 126.182 11.3006 126.182 11.6808L125.905 14.0506C126.884 13.0548 127.833 12.2775 128.753 11.7228C129.672 11.164 130.594 10.8825 131.518 10.8825C132.443 10.8825 133.151 10.9203 133.644 10.9917C133.964 11.0547 134.123 11.269 134.123 11.6388C134.123 12.6934 133.947 14.2607 133.594 16.3447C133.52 16.7439 133.3 16.9414 132.93 16.9414Z" fill="#EDE7E3"/>
<path d="M137.764 8.57997C136.817 8.57997 136.061 8.28374 135.495 7.6892C134.928 7.09045 134.647 6.31943 134.647 5.37824C134.647 4.43705 135.025 3.5967 135.781 2.8572C136.542 2.11349 137.397 1.73953 138.344 1.73953C139.29 1.73953 140.059 2.03996 140.647 2.6387C141.239 3.23325 141.538 4.00007 141.538 4.94126C141.538 5.88245 141.145 6.727 140.361 7.47071C139.582 8.21021 138.716 8.57997 137.764 8.57997ZM140.319 11.6808L137.336 38.1518C137.302 38.3661 137.245 38.5195 137.168 38.614C137.094 38.7043 136.951 38.7569 136.739 38.7737L132.126 38.9333C131.79 38.8997 131.621 38.7548 131.621 38.4964L134.647 11.7985C134.708 11.4624 134.899 11.2775 135.218 11.2439L139.697 11.0842C140.111 11.1178 140.319 11.3174 140.319 11.6808Z" fill="#EDE7E3"/>
<path d="M141.561 34.5383C141.202 33.6265 140.958 32.7231 140.83 31.8324C140.7 30.9374 140.637 29.7063 140.637 28.1432C140.637 26.5802 140.805 24.6516 141.141 22.3532C142.255 14.7061 145.729 10.8825 151.561 10.8825C153.813 10.8825 155.536 11.6556 156.73 13.2018C157.923 14.7439 158.519 16.746 158.519 19.2103C158.519 21.6767 158.364 24.0717 158.057 26.3953C158.011 26.8113 157.776 27.0256 157.351 27.0424L146.007 27.4289C145.99 27.66 145.981 27.9668 145.981 28.3533C145.981 30.0802 146.284 31.45 146.889 32.4626C147.494 33.471 148.406 33.9752 149.629 33.9752C150.855 33.9752 151.992 33.7967 153.04 33.4374C154.093 33.074 154.708 32.8912 154.889 32.8912C155.074 32.8912 155.234 32.9542 155.368 33.0761C155.507 33.2 155.578 33.3681 155.578 33.5803L155.124 37.6224C155.108 37.8534 155.061 38.0047 154.99 38.0761C154.923 38.1434 154.79 38.2148 154.595 38.2862C152.74 38.824 150.956 39.093 149.242 39.093C147.528 39.093 146.196 38.8871 145.25 38.4795C144.303 38.0656 143.54 37.5341 142.965 36.8828C142.393 36.2274 141.925 35.4458 141.561 34.5383ZM146.561 21.6725L146.351 23.1348L152.343 22.8406C152.605 22.8238 152.774 22.7776 152.847 22.6978C153.076 22.4688 153.192 21.8385 153.192 20.807C153.192 19.7776 153.158 19.0507 153.091 18.6305C153.024 18.2061 152.906 17.7712 152.738 17.3279C152.385 16.3489 151.782 15.8573 150.931 15.8573C150.084 15.8573 149.414 16.0044 148.923 16.2943C147.834 16.9666 147.049 18.7607 146.561 21.6725Z" fill="#EDE7E3"/>
<path d="M168.781 0.613454L164.554 38.1266C164.52 38.3451 164.464 38.5005 164.386 38.5888C164.312 38.6791 164.17 38.7316 163.957 38.7484L159.344 38.9333C159.008 38.8997 158.84 38.7547 158.84 38.4963L163.083 0.77312C163.111 0.560932 163.163 0.40967 163.243 0.319332C163.321 0.224793 163.466 0.172271 163.68 0.159666L168.176 0C168.579 0.0462194 168.781 0.250004 168.781 0.613454Z" fill="#EDE7E3"/>
<mask id="mask0_21_859" style="mask-type:luminance" maskUnits="userSpaceOnUse" x="0" y="14" width="34" height="20">
<path d="M0 14.4296H33.8828V33.2534H0V14.4296Z" fill="white"/>
</mask>
<g mask="url(#mask0_21_859)">
<mask id="mask1_21_859" style="mask-type:luminance" maskUnits="userSpaceOnUse" x="-2" y="11" width="36" height="42">
<path d="M2.26895 11.5031L33.9648 14.7888L30.0992 52.1003L-1.59875 48.8166L2.26895 11.5031Z" fill="white"/>
</mask>
<g mask="url(#mask1_21_859)">
<mask id="mask2_21_859" style="mask-type:luminance" maskUnits="userSpaceOnUse" x="-2" y="11" width="36" height="42">
<path d="M2.26895 11.5031L33.9648 14.7888L30.0992 52.1003L-1.59875 48.8166L2.26895 11.5031Z" fill="white"/>
</mask>
<g mask="url(#mask2_21_859)">
<path d="M2.13659 25.8877L30.8681 15.0578C32.0992 14.5956 33.5593 15.7321 33.4185 17.0977L33.0551 20.6104C32.9732 21.3898 32.5215 21.936 31.7021 22.2448L2.96853 33.0727C1.73742 33.537 0.277316 32.4004 0.418074 31.0349L0.783625 27.5222C0.863459 26.7407 1.31515 26.1966 2.13659 25.8877Z" fill="#6C63FF"/>
</g>
</g>
</g>
<mask id="mask3_21_859" style="mask-type:luminance" maskUnits="userSpaceOnUse" x="0" y="27" width="31" height="26">
<path d="M0 27.3373H30.6559V52.0772H0V27.3373Z" fill="white"/>
</mask>
<g mask="url(#mask3_21_859)">
<mask id="mask4_21_859" style="mask-type:luminance" maskUnits="userSpaceOnUse" x="-2" y="11" width="36" height="42">
<path d="M2.26895 11.5031L33.9648 14.7888L30.0992 52.1003L-1.59875 48.8166L2.26895 11.5031Z" fill="white"/>
</mask>
<g mask="url(#mask4_21_859)">
<mask id="mask5_21_859" style="mask-type:luminance" maskUnits="userSpaceOnUse" x="-2" y="11" width="36" height="42">
<path d="M2.26895 11.5031L33.9648 14.7888L30.0992 52.1003L-1.59875 48.8166L2.26895 11.5031Z" fill="white"/>
</mask>
<g mask="url(#mask5_21_859)">
<path d="M3.49374 27.9991L29.3975 44.4888C29.9416 44.9405 30.4668 45.5855 30.3849 46.367L30.0214 49.8797C29.8807 51.2452 28.2189 52.0583 27.1075 51.3524L1.20589 34.8626C0.466384 34.392 0.136547 33.766 0.21638 32.9845L0.57983 29.4739C0.72269 28.1062 2.38448 27.2932 3.49374 27.9991Z" fill="#6C63FF"/>
</g>
</g>
</g>
<mask id="mask6_21_859" style="mask-type:luminance" maskUnits="userSpaceOnUse" x="155" y="54" width="42" height="14">
<path d="M155.431 54.2285H196.843V67.1362H155.431V54.2285Z" fill="white"/>
</mask>
<g mask="url(#mask6_21_859)">
<mask id="mask7_21_859" style="mask-type:luminance" maskUnits="userSpaceOnUse" x="154" y="25" width="50" height="55">
<path d="M188.952 79.0103L154.504 66.3316L169.553 25.4507L203.999 38.1295L188.952 79.0103Z" fill="white"/>
</mask>
<g mask="url(#mask7_21_859)">
<mask id="mask8_21_859" style="mask-type:luminance" maskUnits="userSpaceOnUse" x="154" y="25" width="50" height="55">
<path d="M188.952 79.0103L154.504 66.3316L169.553 25.4507L203.999 38.1295L188.952 79.0103Z" fill="white"/>
</mask>
<g mask="url(#mask8_21_859)">
<path d="M193.209 62.9324L157.922 66.8652C156.41 67.0333 155.099 65.3421 155.647 63.8525L157.059 60.0206C157.372 59.1697 158.032 58.6865 159.04 58.5752L194.326 54.6423C195.839 54.4743 197.15 56.1655 196.602 57.655L195.192 61.487C194.877 62.3399 194.217 62.821 193.209 62.9324Z" fill="#6C63FF"/>
</g>
</g>
</g>
<mask id="mask9_21_859" style="mask-type:luminance" maskUnits="userSpaceOnUse" x="167" y="26" width="31" height="36">
<path d="M167.263 26.2617H197.919V61.2202H167.263V26.2617Z" fill="white"/>
</mask>
<g mask="url(#mask9_21_859)">
<mask id="mask10_21_859" style="mask-type:luminance" maskUnits="userSpaceOnUse" x="154" y="25" width="50" height="55">
<path d="M188.952 79.0103L154.504 66.3316L169.553 25.4507L203.999 38.1295L188.952 79.0103Z" fill="white"/>
</mask>
<g mask="url(#mask10_21_859)">
<mask id="mask11_21_859" style="mask-type:luminance" maskUnits="userSpaceOnUse" x="154" y="25" width="50" height="55">
<path d="M188.952 79.0103L154.504 66.3316L169.553 25.4507L203.999 38.1295L188.952 79.0103Z" fill="white"/>
</mask>
<g mask="url(#mask11_21_859)">
<path d="M192.288 60.1781L167.973 34.308C167.49 33.6483 167.086 32.7744 167.399 31.9214L168.811 28.0915C169.36 26.5999 171.454 26.1629 172.496 27.2722L196.814 53.1423C197.507 53.8797 197.698 54.6759 197.385 55.5268L195.975 59.3588C195.427 60.8483 193.33 61.2874 192.288 60.1781Z" fill="#6C63FF"/>
</g>
</g>
</g>
<mask id="mask12_21_859" style="mask-type:luminance" maskUnits="userSpaceOnUse" x="30" y="9" width="23" height="57">
<path d="M30.6559 9.58917H52.1688V65.5227H30.6559V9.58917Z" fill="white"/>
</mask>
<g mask="url(#mask12_21_859)">
<mask id="mask13_21_859" style="mask-type:luminance" maskUnits="userSpaceOnUse" x="30" y="8" width="23" height="59">
<path d="M30.1055 64.5648L44.6267 8.32446L52.8285 10.4421L38.3073 66.6824L30.1055 64.5648Z" fill="white"/>
</mask>
<g mask="url(#mask13_21_859)">
<mask id="mask14_21_859" style="mask-type:luminance" maskUnits="userSpaceOnUse" x="30" y="8" width="23" height="59">
<path d="M30.1055 64.5648L44.6267 8.32446L52.8285 10.4421L38.3073 66.6824L30.1055 64.5648Z" fill="white"/>
</mask>
<g mask="url(#mask14_21_859)">
<path d="M34.2274 65.3841C32.0278 64.8168 30.7063 62.5731 31.2736 60.3735L43.5742 12.7405C44.1414 10.5409 46.3851 9.21942 48.5847 9.78666C50.7843 10.3539 52.1079 12.5976 51.5386 14.7972L39.2401 62.4303C38.6707 64.6299 36.427 65.9534 34.2274 65.3841Z" fill="#6C63FF"/>
</g>
</g>
</g>
<mask id="mask15_21_859" style="mask-type:luminance" maskUnits="userSpaceOnUse" x="30" y="8" width="23" height="59">
<path d="M30.118 8.51355H52.7066V66.5984H30.118V8.51355Z" fill="white"/>
</mask>
<g mask="url(#mask15_21_859)">
<mask id="mask16_21_859" style="mask-type:luminance" maskUnits="userSpaceOnUse" x="30" y="8" width="23" height="59">
<path d="M30.1055 64.5648L44.6267 8.32446L52.8285 10.4421L38.3073 66.6824L30.1055 64.5648Z" fill="white"/>
</mask>
<g mask="url(#mask16_21_859)">
<mask id="mask17_21_859" style="mask-type:luminance" maskUnits="userSpaceOnUse" x="30" y="8" width="23" height="59">
<path d="M30.1055 64.5648L44.6267 8.32446L52.8285 10.4421L38.3073 66.6824L30.1055 64.5648Z" fill="white"/>
</mask>
<g mask="url(#mask17_21_859)">
<path d="M34.2273 65.3841C32.0277 64.8169 30.7063 62.5731 31.2735 60.3735L43.5741 12.7405C44.1413 10.5409 46.3851 9.21948 48.5847 9.78671C50.7843 10.3539 52.1078 12.5977 51.5385 14.7973L39.24 62.4303C38.6707 64.6299 36.4269 65.9534 34.2273 65.3841Z" stroke="#E8E8E8" stroke-width="0.167901"/>
</g>
</g>
</g>
<path d="M45.9516 75C45.5692 75 45.3801 74.8151 45.3801 74.4454L45.9516 69.647C46.0125 69.3109 46.2121 69.1302 46.5482 69.1008C48.939 68.855 50.5168 68.4768 51.2794 67.9663C52.0462 67.4516 52.4306 66.4285 52.4306 64.899C52.4306 63.3696 52.0378 61.378 51.2542 58.9242C50.4747 56.4661 49.9705 54.8296 49.7415 54.0165C49.0062 51.4177 48.6407 49.2896 48.6407 47.6299C48.6407 45.966 48.9054 44.5458 49.439 43.3693C49.9768 42.1886 50.7436 41.2432 51.7416 40.5373C53.6681 39.1928 56.2626 38.5205 59.5232 38.5205C59.9371 38.5205 60.145 38.7117 60.145 39.0919L59.5232 43.8483C59.4602 44.2307 59.2711 44.4366 58.9517 44.4702C55.9811 44.6677 54.4979 45.5458 54.4979 47.1089C54.4979 48.5438 55.1282 51.3694 56.3887 55.588C57.6492 59.8065 58.2795 62.8276 58.2795 64.6469C58.2795 71.5504 54.1702 75 45.9516 75Z" fill="#EDE7E3"/>
<path d="M79.034 47.4954L76.0507 73.9664C76.0003 74.3655 75.8007 74.5714 75.4541 74.5882L70.8154 74.7479C70.4897 74.7143 70.328 74.5693 70.328 74.3109L70.7649 71.1848C70.0633 72.3844 69.2964 73.3067 68.4624 73.9496C67.6262 74.5882 66.6893 74.9076 65.6472 74.9076C64.6052 74.9076 63.7165 74.7269 62.9833 74.3697C62.248 74.0126 61.6472 73.5378 61.1766 72.9496C60.7102 72.3571 60.3362 71.647 60.0505 70.8235C59.5127 69.3571 59.2438 67.3486 59.2438 64.7982C59.2438 62.2498 59.4139 60.088 59.7564 58.3107C60.103 56.5355 60.4056 55.1846 60.664 54.2602C60.9266 53.3316 61.2732 52.3778 61.706 51.403C62.143 50.424 62.6388 49.6026 63.1934 48.9408C64.4476 47.445 66.0296 46.6971 67.9414 46.6971C69.3637 46.6971 70.4498 47.0395 71.2019 47.7223C71.9519 48.4009 72.5801 49.403 73.0843 50.7308L73.3616 47.6131C73.3889 47.2769 73.5801 47.092 73.9331 47.0584L78.4373 46.8988C78.8344 46.9324 79.034 47.132 79.034 47.4954ZM65.0254 64.1427C65.0254 67.8024 66.0044 69.6302 67.9666 69.6302C68.8237 69.6302 69.517 69.2352 70.0506 68.4453C70.5885 67.6554 71.0528 66.0755 71.4456 63.7057C71.8364 61.3317 72.0339 59.6006 72.0339 58.5124C72.0339 57.4262 72.0255 56.7392 72.0087 56.4535C71.9919 56.1636 71.9603 55.777 71.9162 55.2938C71.87 54.8127 71.786 54.4073 71.6641 54.0753C71.5402 53.7455 71.3784 53.4115 71.1767 53.0753C70.7776 52.4199 70.1368 52.0921 69.2523 52.0921C68.3658 52.0921 67.6641 52.4871 67.143 53.277C66.622 54.0627 66.2145 55.1132 65.9245 56.4283C65.3237 59.2477 65.0254 61.8191 65.0254 64.1427Z" fill="#EDE7E3"/>
<path d="M87.501 47.4954L87.2489 49.6047C89.4506 47.6677 91.562 46.6971 93.5851 46.6971C96.1566 46.6971 97.7785 48.1047 98.4507 50.9156C98.6356 51.6845 98.7281 52.4093 98.7281 53.0921C98.7281 53.7707 98.7029 54.3169 98.6524 54.7308L96.4507 73.9664C96.3877 74.3487 96.1986 74.5546 95.8793 74.5882L91.2406 74.7479C90.9044 74.7143 90.7364 74.5693 90.7364 74.3109L92.8288 56.1258C92.8729 55.7287 92.896 55.3695 92.896 55.0501C92.896 53.7959 92.5977 52.9451 92.0053 52.4955C91.417 52.0417 90.6712 51.8148 89.77 51.8148C88.8666 51.8148 87.9254 52.006 86.9464 52.3862L84.4926 73.9664C84.4295 74.3487 84.2405 74.5546 83.9211 74.5882L79.2824 74.7479C78.9463 74.7143 78.7782 74.5693 78.7782 74.3109L81.8035 47.6131C81.8644 47.2769 82.0556 47.092 82.3749 47.0584L86.8792 46.8988C87.293 46.9156 87.501 47.1152 87.501 47.4954Z" fill="#EDE7E3"/>
<path d="M102.804 46.9912C103.157 43.6256 103.386 41.8861 103.493 41.7727C103.598 41.655 103.762 41.5878 103.981 41.571L108.359 41.4113C108.773 41.4449 108.981 41.6361 108.981 41.9828C108.689 43.6866 108.445 45.3168 108.25 46.8736L113.594 46.6971C113.964 46.7097 114.149 46.9072 114.149 47.2938L113.502 50.9409C113.439 51.3064 113.25 51.4955 112.931 51.5123L107.67 51.7224C106.632 61.0902 106.115 66.2562 106.115 67.2184C106.115 69.0062 106.88 69.8991 108.409 69.8991C109.187 69.8991 109.943 69.7794 110.678 69.5378C111.412 69.292 111.872 69.168 112.057 69.168C112.38 69.168 112.544 69.3676 112.544 69.7647L112.057 73.7815C112.027 74.0126 111.973 74.1807 111.888 74.2857C111.804 74.3929 111.428 74.521 110.762 74.6723C110.094 74.8278 108.958 74.9076 107.351 74.9076C104.991 74.9076 103.245 74.3614 102.115 73.2689C100.983 72.1723 100.418 70.5378 100.418 68.3697C100.418 66.1974 101.023 60.67 102.233 51.7896L99.9807 51.8821C99.5984 51.8652 99.4093 51.6762 99.4093 51.3106L100.031 47.6131C100.075 47.2601 100.275 47.0753 100.628 47.0585L102.804 46.9912Z" fill="#EDE7E3"/>
<path d="M120.623 74.9076C117.911 74.9076 115.922 74.0924 114.657 72.4622C113.396 70.8319 112.766 68.4579 112.766 65.336C112.766 63.8801 112.926 61.9809 113.245 59.6384C113.569 57.2981 113.869 55.5964 114.144 54.5375C114.417 53.4745 114.808 52.4325 115.312 51.4114C115.817 50.3925 116.413 49.5543 117.102 48.8988C118.619 47.4324 120.67 46.6971 123.254 46.6971C126.928 46.6971 129.308 48.0416 130.397 50.7308C130.979 52.1719 131.271 53.9136 131.271 55.9577C131.271 58.004 131.113 60.1216 130.8 62.3107C130.485 64.4957 130.189 66.1133 129.909 67.1596C129.634 68.2079 129.247 69.2331 128.75 70.2352C128.256 71.2394 127.666 72.0714 126.976 72.7311C125.458 74.1828 123.34 74.9076 120.623 74.9076ZM124.682 64.8486C124.85 64.0419 125.065 62.5271 125.329 60.3023C125.598 58.0733 125.733 56.4199 125.733 55.3443C125.733 52.7455 124.792 51.445 122.909 51.445C122.023 51.445 121.292 51.8694 120.716 52.714C120.144 53.5543 119.682 54.9535 119.329 56.9073C118.628 60.8906 118.279 64.1238 118.279 66.6049C118.279 69.0819 119.212 70.3193 121.077 70.3193C121.962 70.3193 122.699 69.8949 123.287 69.0419C123.88 68.1911 124.346 66.794 124.682 64.8486Z" fill="#EDE7E3"/>
<path d="M144.144 52.2518L141.547 52.1341C140.812 52.1341 140.236 52.3022 139.816 52.6383C139.396 52.9745 139.186 53.4619 139.186 54.1005C139.186 54.735 139.299 55.4346 139.53 56.2014C139.833 57.2266 140.362 58.4199 141.118 59.7813C141.879 61.1427 142.406 62.107 142.698 62.6721C143.583 64.4326 144.026 66.107 144.026 67.6974C144.026 70.0125 143.347 71.7941 141.992 73.042C140.641 74.2857 138.589 74.9076 135.833 74.9076C134.471 74.9076 133.383 74.834 132.572 74.6891C131.759 74.5441 131.312 74.4286 131.227 74.3445C131.143 74.2605 131.101 74.126 131.101 73.9412L131.698 69.6974C131.732 69.3172 131.866 69.126 132.101 69.126C132.337 69.126 132.791 69.21 133.463 69.3781C134.139 69.5461 134.732 69.6302 135.236 69.6302C137.102 69.6302 138.034 68.8886 138.034 67.4033C138.034 66.3444 137.807 65.357 137.354 64.4368C136.904 63.5187 136.417 62.5713 135.891 61.5965C135.364 60.6174 134.954 59.8317 134.665 59.2435C134.372 58.651 134.07 57.8359 133.757 56.7981C133.442 55.756 133.286 54.777 133.286 53.8568C133.286 51.7119 133.925 49.9828 135.202 48.6719C136.48 47.3568 138.341 46.6971 140.791 46.6971C142.364 46.6971 143.597 46.7727 144.488 46.924C144.868 46.987 145.06 47.1845 145.06 47.5206L144.555 51.6047C144.555 52.0375 144.417 52.2518 144.144 52.2518Z" fill="#EDE7E3"/>
</svg>
