<svg width="272" height="104" viewBox="0 0 272 104" fill="none" xmlns="http://www.w3.org/2000/svg">
<path d="M104.874 11.8261L99.5735 11.2948C97.6564 11.2948 96.1724 11.7568 95.1272 12.6807C94.0098 13.7143 93.187 15.695 92.6557 18.6284C92.1303 21.5618 91.6279 25.4654 91.1428 30.339C90.6635 35.2069 90.4268 38.7177 90.4268 40.8716C90.4268 43.0284 90.7733 44.5528 91.4662 45.445C92.1591 46.34 92.982 46.7847 93.9377 46.7847C94.8991 46.7847 95.6729 46.7731 96.259 46.75L98.3378 28.8607C98.4215 28.3988 98.6958 28.1505 99.1578 28.1101L105.094 27.8906C105.663 27.908 105.949 28.1563 105.949 28.6413L103.292 52.305C103.206 52.767 102.926 53.0297 102.449 53.0904C99.6457 53.5119 96.2359 53.7255 92.2169 53.7255C87.4039 53.7255 84.3116 51.4013 82.9431 46.75C82.5649 45.4739 82.3772 44.2035 82.3772 42.9389C82.3772 41.6771 82.4176 40.1844 82.5042 38.4579C82.7583 32.2763 83.4917 25.858 84.7101 19.2058C85.5329 14.5805 86.5406 11.3295 87.7359 9.45856C88.9976 7.50391 90.5134 6.13825 92.2862 5.3587C94.4949 4.38859 96.8595 3.90353 99.3772 3.90353C101.901 3.90353 103.584 3.97283 104.424 4.11141C105.27 4.25 105.746 4.33084 105.856 4.35394C106.102 4.44056 106.226 4.70041 106.226 5.13927L105.533 11.0061C105.446 11.5547 105.227 11.8261 104.874 11.8261Z" fill="#EDE7E3"/>
<path d="M133.99 16.053L129.89 52.4321C129.821 52.9807 129.546 53.2636 129.07 53.2867L122.695 53.5061C122.247 53.46 122.025 53.2607 122.025 52.9056L122.626 48.6094C121.661 50.258 120.607 51.5255 119.461 52.409C118.312 53.2867 117.024 53.7256 115.592 53.7256C114.16 53.7256 112.939 53.4773 111.931 52.9864C110.921 52.4956 110.095 51.8431 109.448 51.0347C108.807 50.2205 108.293 49.2446 107.901 48.1128C107.162 46.0975 106.792 43.3373 106.792 39.8322C106.792 36.33 107.026 33.3591 107.496 30.9165C107.973 28.4768 108.389 26.6203 108.744 25.3499C109.105 24.0737 109.581 22.7629 110.176 21.4233C110.776 20.0778 111.458 18.9489 112.22 18.0394C113.944 15.9837 116.118 14.9559 118.745 14.9559C120.7 14.9559 122.192 15.4265 123.226 16.3648C124.257 17.2974 125.12 18.6746 125.813 20.4994L126.194 16.2147C126.232 15.7527 126.494 15.4987 126.979 15.4525L133.17 15.233C133.715 15.2792 133.99 15.5535 133.99 16.053ZM114.738 38.9314C114.738 43.961 116.083 46.4729 118.78 46.4729C119.958 46.4729 120.911 45.9301 121.644 44.8445C122.383 43.7589 123.021 41.5877 123.561 38.3309C124.098 35.0683 124.369 32.6892 124.369 31.1936C124.369 29.7009 124.358 28.7568 124.335 28.3642C124.312 27.9657 124.268 27.4345 124.208 26.7704C124.144 26.1092 124.029 25.552 123.861 25.0958C123.691 24.6425 123.469 24.1835 123.191 23.7215C122.643 22.8207 121.762 22.3703 120.547 22.3703C119.328 22.3703 118.364 22.9131 117.648 23.9987C116.932 25.0785 116.372 26.5221 115.973 28.3295C115.148 32.2042 114.738 35.7381 114.738 38.9314Z" fill="#EDE7E3"/>
<path d="M147.301 0.843071L144.644 21.0075C145.698 19.0528 146.83 17.5543 148.04 16.5149C149.247 15.4755 150.604 14.9558 152.105 14.9558C153.606 14.9558 154.859 15.2041 155.87 15.695C156.886 16.1887 157.712 16.8383 158.353 17.6467C158.991 18.4552 159.522 19.431 159.947 20.5686C160.663 22.5868 161.021 25.347 161.021 28.8492C161.021 32.3543 160.781 35.3252 160.305 37.7649C159.834 40.2075 159.418 42.0611 159.057 43.3315C158.702 44.6019 158.226 45.9127 157.625 47.2582C157.025 48.6065 156.346 49.7296 155.593 50.6304C153.866 52.6948 151.842 53.7255 149.518 53.7255C147.191 53.7255 145.513 53.2376 144.483 52.2588C143.458 51.283 142.577 49.8047 141.838 47.8241L141.491 52.4321C141.445 52.9806 141.183 53.2636 140.706 53.2867L134.331 53.5061C133.869 53.4599 133.638 53.2607 133.638 52.9056L139.505 1.0625C139.543 0.77089 139.609 0.56301 139.701 0.438859C139.8 0.308934 139.996 0.236752 140.29 0.219429L146.469 0C147.023 0.0635194 147.301 0.34358 147.301 0.843071ZM153.063 29.75C153.063 24.7233 151.718 22.2086 149.033 22.2086C147.855 22.2086 146.896 22.7514 146.157 23.837C145.424 24.9168 144.789 27.088 144.252 30.3505C143.712 33.6073 143.443 35.9835 143.443 37.4762C143.443 38.9718 143.455 39.9188 143.478 40.3173C143.501 40.7186 143.541 41.2498 143.605 41.911C143.666 42.5751 143.781 43.1323 143.951 43.5856C144.119 44.0331 144.338 44.4806 144.61 44.9253C145.155 45.8492 146.036 46.3111 147.254 46.3111C148.479 46.3111 149.449 45.7741 150.165 44.6943C150.881 43.6087 151.426 42.1622 151.805 40.3519C152.642 36.4801 153.063 32.9462 153.063 29.75Z" fill="#EDE7E3"/>
<path d="M182.686 23.2826L179.314 22.9362C176.579 22.9362 174.284 23.4847 172.43 24.5761L169.312 52.3975C169.226 52.9287 168.966 53.2145 168.527 53.2521L162.152 53.5061C161.69 53.46 161.459 53.2607 161.459 52.9056L165.617 16.2147C165.7 15.7527 165.963 15.4987 166.402 15.4525L172.557 15.233C173.126 15.2561 173.412 15.5304 173.412 16.053L173.031 19.3098C174.376 17.9413 175.681 16.873 176.946 16.1108C178.208 15.3428 179.475 14.9559 180.746 14.9559C182.016 14.9559 182.989 15.0078 183.668 15.106C184.106 15.1926 184.326 15.4871 184.326 15.9953C184.326 17.4447 184.083 19.5985 183.598 22.4627C183.497 23.0112 183.194 23.2826 182.686 23.2826Z" fill="#EDE7E3"/>
<path d="M189.33 11.7914C188.028 11.7914 186.988 11.3843 186.212 10.5673C185.432 9.7444 185.045 8.68478 185.045 7.3913C185.045 6.09783 185.565 4.94293 186.604 3.92663C187.649 2.90455 188.825 2.39062 190.127 2.39062C191.426 2.39062 192.483 2.8035 193.291 3.62636C194.105 4.44344 194.515 5.49728 194.515 6.79076C194.515 8.08424 193.975 9.24491 192.898 10.267C191.827 11.2833 190.638 11.7914 189.33 11.7914ZM192.841 16.053L188.741 52.4321C188.695 52.7266 188.617 52.9373 188.51 53.0673C188.409 53.1914 188.212 53.2636 187.921 53.2867L181.581 53.5061C181.119 53.4599 180.888 53.2607 180.888 52.9056L185.045 16.2147C185.129 15.7527 185.392 15.4986 185.831 15.4524L191.986 15.233C192.555 15.2792 192.841 15.5535 192.841 16.053Z" fill="#EDE7E3"/>
<path d="M194.548 47.4661C194.054 46.213 193.719 44.9715 193.543 43.7473C193.364 42.5174 193.277 40.8254 193.277 38.6773C193.277 36.5292 193.508 33.8788 193.97 30.7201C195.501 20.2106 200.276 14.9559 208.291 14.9559C211.386 14.9559 213.754 16.0184 215.394 18.1434C217.033 20.2626 217.853 23.0141 217.853 26.4008C217.853 29.7905 217.64 33.0819 217.218 36.2752C217.155 36.8468 216.831 37.1413 216.248 37.1644L200.657 37.6957C200.634 38.0133 200.622 38.4348 200.622 38.9661C200.622 41.3394 201.038 43.2218 201.87 44.6135C202.701 45.9994 203.954 46.6923 205.635 46.6923C207.321 46.6923 208.883 46.4469 210.324 45.9532C211.77 45.4537 212.616 45.2025 212.864 45.2025C213.118 45.2025 213.338 45.2891 213.523 45.4566C213.713 45.6269 213.811 45.8579 213.811 46.1495L213.188 51.7045C213.165 52.0221 213.101 52.23 213.003 52.3282C212.91 52.4205 212.729 52.5187 212.46 52.6169C209.911 53.356 207.459 53.7256 205.103 53.7256C202.747 53.7256 200.917 53.4426 199.618 52.8825C198.316 52.3137 197.267 51.5833 196.476 50.6882C195.691 49.7874 195.047 48.7133 194.548 47.4661ZM201.419 29.7847L201.131 31.7942L209.365 31.39C209.726 31.3669 209.957 31.3034 210.058 31.1936C210.373 30.8789 210.531 30.0128 210.531 28.5951C210.531 27.1804 210.485 26.1814 210.393 25.604C210.3 25.0207 210.139 24.4231 209.908 23.8139C209.423 22.4684 208.594 21.7928 207.425 21.7928C206.261 21.7928 205.34 21.9949 204.665 22.3934C203.169 23.3173 202.089 25.783 201.419 29.7847Z" fill="#EDE7E3"/>
<path d="M231.956 0.843071L226.147 52.3974C226.101 52.6977 226.023 52.9113 225.916 53.0326C225.815 53.1568 225.619 53.2289 225.327 53.252L218.987 53.5061C218.525 53.4599 218.294 53.2607 218.294 52.9056L224.126 1.0625C224.163 0.77089 224.236 0.56301 224.345 0.438859C224.452 0.308934 224.651 0.236752 224.946 0.219429L231.125 0C231.679 0.0635194 231.956 0.34358 231.956 0.843071Z" fill="#EDE7E3"/>
<mask id="mask0_21_858" style="mask-type:luminance" maskUnits="userSpaceOnUse" x="0" y="19" width="47" height="27">
<path d="M0 19.8306H46.5652V45.7002H0V19.8306Z" fill="white"/>
</mask>
<g mask="url(#mask0_21_858)">
<mask id="mask1_21_858" style="mask-type:luminance" maskUnits="userSpaceOnUse" x="-3" y="15" width="50" height="57">
<path d="M3.11824 15.8087L46.6779 20.3243L41.3654 71.6015L-2.19714 67.0888L3.11824 15.8087Z" fill="white"/>
</mask>
<g mask="url(#mask1_21_858)">
<mask id="mask2_21_858" style="mask-type:luminance" maskUnits="userSpaceOnUse" x="-3" y="15" width="50" height="57">
<path d="M3.11824 15.8087L46.6779 20.3243L41.3654 71.6015L-2.19714 67.0888L3.11824 15.8087Z" fill="white"/>
</mask>
<g mask="url(#mask2_21_858)">
<path d="M2.93638 35.5776L42.4221 20.6939C44.114 20.0587 46.1207 21.6207 45.9272 23.4974L45.4277 28.3249C45.3151 29.396 44.6944 30.1467 43.5683 30.5711L4.07972 45.4519C2.3878 46.09 0.38118 44.528 0.574624 42.6513L1.077 37.8238C1.18672 36.7498 1.80747 36.002 2.93638 35.5776Z" fill="#6C63FF"/>
</g>
</g>
</g>
<mask id="mask3_21_858" style="mask-type:luminance" maskUnits="userSpaceOnUse" x="0" y="37" width="43" height="35">
<path d="M0 37.5697H42.1304V71.5697H0V37.5697Z" fill="white"/>
</mask>
<g mask="url(#mask3_21_858)">
<mask id="mask4_21_858" style="mask-type:luminance" maskUnits="userSpaceOnUse" x="-3" y="15" width="50" height="57">
<path d="M3.11824 15.8087L46.6779 20.3243L41.3654 71.6015L-2.19714 67.0888L3.11824 15.8087Z" fill="white"/>
</mask>
<g mask="url(#mask4_21_858)">
<mask id="mask5_21_858" style="mask-type:luminance" maskUnits="userSpaceOnUse" x="-3" y="15" width="50" height="57">
<path d="M3.11824 15.8087L46.6779 20.3243L41.3654 71.6015L-2.19714 67.0888L3.11824 15.8087Z" fill="white"/>
</mask>
<g mask="url(#mask5_21_858)">
<path d="M4.80148 38.4792L40.401 61.1411C41.1488 61.7618 41.8706 62.6482 41.758 63.7222L41.2585 68.5497C41.0651 70.4264 38.7813 71.5437 37.2539 70.5736L1.65729 47.9118C0.640988 47.265 0.187692 46.4047 0.297407 45.3306L0.796898 40.506C0.993229 38.6265 3.27703 37.5091 4.80148 38.4792Z" fill="#6C63FF"/>
</g>
</g>
</g>
<mask id="mask6_21_858" style="mask-type:luminance" maskUnits="userSpaceOnUse" x="213" y="74" width="58" height="19">
<path d="M213.609 74.5263H270.522V92.2654H213.609V74.5263Z" fill="white"/>
</mask>
<g mask="url(#mask6_21_858)">
<mask id="mask7_21_858" style="mask-type:luminance" maskUnits="userSpaceOnUse" x="212" y="34" width="69" height="75">
<path d="M259.677 108.584L212.335 91.1596L233.017 34.9771L280.356 52.4015L259.677 108.584Z" fill="white"/>
</mask>
<g mask="url(#mask7_21_858)">
<mask id="mask8_21_858" style="mask-type:luminance" maskUnits="userSpaceOnUse" x="212" y="34" width="69" height="75">
<path d="M259.677 108.584L212.335 91.1596L233.017 34.9771L280.356 52.4015L259.677 108.584Z" fill="white"/>
</mask>
<g mask="url(#mask8_21_858)">
<path d="M265.527 86.4881L217.033 91.893C214.954 92.124 213.153 89.7998 213.906 87.7527L215.846 82.4864C216.277 81.3171 217.183 80.653 218.569 80.5L267.063 75.0951C269.142 74.8641 270.943 77.1883 270.19 79.2354L268.252 84.5017C267.819 85.6739 266.913 86.3351 265.527 86.4881Z" fill="#6C63FF"/>
</g>
</g>
</g>
<mask id="mask9_21_858" style="mask-type:luminance" maskUnits="userSpaceOnUse" x="229" y="36" width="43" height="49">
<path d="M229.87 36.0915H272V84.135H229.87V36.0915Z" fill="white"/>
</mask>
<g mask="url(#mask9_21_858)">
<mask id="mask10_21_858" style="mask-type:luminance" maskUnits="userSpaceOnUse" x="212" y="34" width="69" height="75">
<path d="M259.677 108.584L212.335 91.1597L233.017 34.9771L280.356 52.4015L259.677 108.584Z" fill="white"/>
</mask>
<g mask="url(#mask10_21_858)">
<mask id="mask11_21_858" style="mask-type:luminance" maskUnits="userSpaceOnUse" x="212" y="34" width="69" height="75">
<path d="M259.677 108.584L212.335 91.1597L233.017 34.9771L280.356 52.4015L259.677 108.584Z" fill="white"/>
</mask>
<g mask="url(#mask11_21_858)">
<path d="M264.262 82.7029L230.845 47.1496C230.181 46.243 229.627 45.0419 230.057 43.8697L231.997 38.6063C232.751 36.5563 235.63 35.9558 237.062 37.4802L270.481 73.0336C271.434 74.047 271.697 75.1413 271.267 76.3106L269.329 81.5769C268.576 83.6239 265.694 84.2274 264.262 82.7029Z" fill="#6C63FF"/>
</g>
</g>
</g>
<mask id="mask12_21_858" style="mask-type:luminance" maskUnits="userSpaceOnUse" x="42" y="13" width="30" height="78">
<path d="M42.1305 13.1785H71.6957V90.048H42.1305V13.1785Z" fill="white"/>
</mask>
<g mask="url(#mask12_21_858)">
<mask id="mask13_21_858" style="mask-type:luminance" maskUnits="userSpaceOnUse" x="41" y="11" width="32" height="81">
<path d="M41.3739 88.7315L61.3304 11.4404L72.6022 14.3507L52.6456 91.6418L41.3739 88.7315Z" fill="white"/>
</mask>
<g mask="url(#mask13_21_858)">
<mask id="mask14_21_858" style="mask-type:luminance" maskUnits="userSpaceOnUse" x="41" y="11" width="32" height="81">
<path d="M41.3739 88.7315L61.3304 11.4404L72.6022 14.3507L52.6456 91.6418L41.3739 88.7315Z" fill="white"/>
</mask>
<g mask="url(#mask14_21_858)">
<path d="M47.0386 89.8575C44.0157 89.078 42.1996 85.9944 42.9792 82.9715L59.8839 17.5093C60.6635 14.4864 63.747 12.6703 66.77 13.4499C69.7929 14.2294 71.6118 17.313 70.8294 20.3359L53.9276 85.7981C53.1451 88.821 50.0616 90.6399 47.0386 89.8575Z" fill="#6C63FF"/>
</g>
</g>
</g>
<mask id="mask15_21_858" style="mask-type:luminance" maskUnits="userSpaceOnUse" x="41" y="11" width="32" height="81">
<path d="M41.3914 11.7002H72.4348V91.5263H41.3914V11.7002Z" fill="white"/>
</mask>
<g mask="url(#mask15_21_858)">
<mask id="mask16_21_858" style="mask-type:luminance" maskUnits="userSpaceOnUse" x="41" y="11" width="32" height="81">
<path d="M41.3739 88.7315L61.3304 11.4404L72.6022 14.3507L52.6456 91.6418L41.3739 88.7315Z" fill="white"/>
</mask>
<g mask="url(#mask16_21_858)">
<mask id="mask17_21_858" style="mask-type:luminance" maskUnits="userSpaceOnUse" x="41" y="11" width="32" height="81">
<path d="M41.3739 88.7315L61.3304 11.4404L72.6022 14.3507L52.6456 91.6418L41.3739 88.7315Z" fill="white"/>
</mask>
<g mask="url(#mask17_21_858)">
<path d="M47.0387 89.8575C44.0158 89.0779 42.1997 85.9944 42.9793 82.9714L59.884 17.5093C60.6635 14.4864 63.7471 12.6703 66.77 13.4499C69.793 14.2294 71.6119 17.313 70.8295 20.3359L53.9276 85.798C53.1452 88.8209 50.0616 90.6399 47.0387 89.8575Z" stroke="#E8E8E8" stroke-width="0.230747"/>
</g>
</g>
</g>
<path d="M63.1513 103.073C62.6258 103.073 62.366 102.819 62.366 102.31L63.1513 95.716C63.235 95.254 63.5093 95.0057 63.9713 94.9653C67.2569 94.6275 69.4252 94.1078 70.4733 93.4062C71.5271 92.6988 72.0555 91.2928 72.0555 89.1909C72.0555 87.089 71.5156 84.3519 70.4387 80.9796C69.3675 77.6015 68.6746 75.3524 68.3599 74.235C67.3493 70.6635 66.8469 67.7387 66.8469 65.4578C66.8469 63.1712 67.2107 61.2194 67.9441 59.6025C68.6832 57.9799 69.7371 56.6807 71.1085 55.7106C73.7561 53.8627 77.3218 52.9388 81.8028 52.9388C82.3716 52.9388 82.6574 53.2016 82.6574 53.7241L81.8028 60.2608C81.7162 60.7863 81.4563 61.0692 81.0175 61.1154C76.9349 61.3868 74.8965 62.5937 74.8965 64.7418C74.8965 66.7138 75.7627 70.5971 77.495 76.3947C79.2274 82.1922 80.0936 86.344 80.0936 88.8444C80.0936 98.3318 74.4461 103.073 63.1513 103.073Z" fill="#EDE7E3"/>
<path d="M108.617 65.273L104.517 101.652C104.447 102.201 104.173 102.484 103.697 102.507L97.3217 102.726C96.8742 102.68 96.6518 102.481 96.6518 102.126L97.2524 97.8294C96.2881 99.478 95.2342 100.745 94.088 101.629C92.9389 102.507 91.6512 102.946 90.2191 102.946C88.787 102.946 87.5657 102.697 86.5581 102.206C85.5476 101.716 84.7218 101.063 84.0751 100.255C83.4341 99.4405 82.9202 98.4646 82.5275 97.3328C81.7884 95.3175 81.4188 92.5573 81.4188 89.0522C81.4188 85.55 81.6527 82.579 82.1233 80.1364C82.5997 77.6967 83.0155 75.8402 83.3706 74.5699C83.7315 73.2937 84.2079 71.9829 84.8027 70.6432C85.4032 69.2978 86.0846 68.1689 86.8468 67.2594C88.5705 65.2037 90.7446 64.1758 93.372 64.1758C95.3266 64.1758 96.8193 64.6465 97.8529 65.5848C98.8837 66.5174 99.747 67.8946 100.44 69.7193L100.821 65.4347C100.859 64.9727 101.121 64.7186 101.606 64.6724L107.797 64.453C108.342 64.4992 108.617 64.7735 108.617 65.273ZM89.3645 88.1514C89.3645 93.1809 90.7099 95.6928 93.4066 95.6928C94.5846 95.6928 95.5374 95.15 96.2707 94.0644C97.0099 92.9788 97.6479 90.8076 98.1878 87.5508C98.7249 84.2883 98.9963 81.9092 98.9963 80.4136C98.9963 78.9209 98.9847 77.9768 98.9616 77.5841C98.9385 77.1857 98.8952 76.6544 98.8346 75.9904C98.7711 75.3292 98.6556 74.772 98.4881 74.3158C98.3178 73.8625 98.0955 73.4034 97.8183 72.9415C97.2697 72.0407 96.3891 71.5902 95.1736 71.5902C93.9552 71.5902 92.9908 72.133 92.2748 73.2186C91.5588 74.2985 90.9986 75.7421 90.6002 77.5495C89.7745 81.4241 89.3645 84.9581 89.3645 88.1514Z" fill="#EDE7E3"/>
<path d="M120.253 65.273L119.906 68.1718C122.932 65.5097 125.834 64.1758 128.614 64.1758C132.148 64.1758 134.377 66.1103 135.301 69.9734C135.555 71.0301 135.682 72.0262 135.682 72.9646C135.682 73.8971 135.647 74.6478 135.578 75.2166L132.552 101.652C132.466 102.178 132.206 102.46 131.767 102.507L125.392 102.726C124.93 102.68 124.699 102.481 124.699 102.126L127.575 77.1337C127.635 76.588 127.667 76.0943 127.667 75.6555C127.667 73.9318 127.257 72.7625 126.443 72.1446C125.635 71.521 124.61 71.2091 123.371 71.2091C122.129 71.2091 120.836 71.4719 119.491 71.9945L116.118 101.652C116.032 102.178 115.772 102.46 115.333 102.507L108.958 102.726C108.496 102.68 108.265 102.481 108.265 102.126L112.423 65.4347C112.506 64.9727 112.769 64.7186 113.208 64.6724L119.398 64.453C119.967 64.4761 120.253 64.7504 120.253 65.273Z" fill="#EDE7E3"/>
<path d="M141.284 64.5801C141.769 59.9548 142.084 57.5642 142.231 57.4083C142.375 57.2466 142.601 57.1542 142.901 57.1311L148.918 56.9117C149.487 56.9578 149.772 57.2206 149.772 57.697C149.371 60.0385 149.036 62.279 148.768 64.4184L156.113 64.1759C156.621 64.1932 156.875 64.4646 156.875 64.9959L155.986 70.0081C155.899 70.5105 155.639 70.7703 155.2 70.7934L147.971 71.0822C146.545 83.9563 145.834 91.056 145.834 92.3784C145.834 94.8354 146.885 96.0625 148.987 96.0625C150.055 96.0625 151.095 95.8979 152.105 95.5659C153.113 95.2281 153.745 95.0577 153.999 95.0577C154.444 95.0577 154.669 95.332 154.669 95.8777L153.999 101.398C153.959 101.716 153.884 101.947 153.768 102.091C153.653 102.238 153.136 102.414 152.221 102.622C151.303 102.836 149.741 102.946 147.532 102.946C144.29 102.946 141.89 102.195 140.337 100.694C138.781 99.1865 138.004 96.9402 138.004 93.9606C138.004 90.9752 138.836 83.3789 140.499 71.1746L137.404 71.3016C136.878 71.2785 136.618 71.0187 136.618 70.5163L137.473 65.4348C137.534 64.9497 137.808 64.6956 138.293 64.6725L141.284 64.5801Z" fill="#EDE7E3"/>
<path d="M165.773 102.946C162.046 102.946 159.311 101.825 157.573 99.5848C155.841 97.3443 154.975 94.0818 154.975 89.7913C154.975 87.7905 155.194 85.1804 155.633 81.9612C156.078 78.7448 156.491 76.4061 156.869 74.951C157.244 73.49 157.781 72.058 158.474 70.6548C159.167 69.2545 159.987 68.1025 160.934 67.2017C163.019 65.1864 165.836 64.1758 169.388 64.1758C174.438 64.1758 177.709 66.0237 179.204 69.7193C180.004 71.7 180.405 74.0935 180.405 76.9027C180.405 79.7149 180.189 82.6252 179.759 85.6337C179.326 88.6364 178.919 90.8596 178.535 92.2974C178.156 93.7382 177.625 95.1471 176.941 96.5244C176.262 97.9044 175.451 99.0478 174.504 99.9544C172.416 101.949 169.506 102.946 165.773 102.946ZM171.351 89.1215C171.582 88.0128 171.877 85.9311 172.24 82.8735C172.61 79.8102 172.795 77.5379 172.795 76.0597C172.795 72.4882 171.501 70.701 168.914 70.701C167.696 70.701 166.691 71.2842 165.9 72.4449C165.115 73.5998 164.479 75.5227 163.994 78.2078C163.03 83.682 162.551 88.1254 162.551 91.5352C162.551 94.9393 163.833 96.6398 166.397 96.6398C167.612 96.6398 168.626 96.0566 169.434 94.8844C170.248 93.7151 170.889 91.7951 171.351 89.1215Z" fill="#EDE7E3"/>
<path d="M198.097 71.8097L194.528 71.648C193.518 71.648 192.727 71.879 192.149 72.3409C191.572 72.8029 191.283 73.4727 191.283 74.3504C191.283 75.2224 191.439 76.1838 191.757 77.2377C192.172 78.6466 192.9 80.2866 193.939 82.1575C194.984 84.0284 195.709 85.3537 196.11 86.1303C197.326 88.5498 197.935 90.8509 197.935 93.0366C197.935 96.2183 197.003 98.6667 195.14 100.382C193.284 102.091 190.463 102.946 186.675 102.946C184.804 102.946 183.309 102.844 182.194 102.645C181.077 102.446 180.462 102.287 180.346 102.172C180.231 102.056 180.173 101.871 180.173 101.617L180.993 95.7852C181.039 95.2626 181.224 94.9999 181.547 94.9999C181.871 94.9999 182.494 95.1154 183.418 95.3464C184.348 95.5773 185.162 95.6928 185.855 95.6928C188.419 95.6928 189.701 94.6736 189.701 92.6324C189.701 91.1772 189.389 89.8202 188.765 88.5556C188.147 87.2939 187.478 85.9917 186.756 84.6521C186.031 83.3066 185.468 82.2268 185.07 81.4184C184.668 80.6042 184.253 79.4839 183.822 78.0576C183.389 76.6256 183.176 75.2801 183.176 74.0155C183.176 71.0677 184.053 68.6915 185.809 66.8898C187.564 65.0824 190.122 64.1758 193.489 64.1758C195.651 64.1758 197.346 64.2798 198.57 64.4877C199.093 64.5743 199.356 64.8457 199.356 65.3076L198.663 70.9204C198.663 71.5152 198.472 71.8097 198.097 71.8097Z" fill="#EDE7E3"/>
</svg>
