<svg width="170" height="170" viewBox="0 0 170 170" fill="none" xmlns="http://www.w3.org/2000/svg">
<g clip-path="url(#clip0_310_284)">
<circle cx="85" cy="85" r="85" fill="#EDE7E3"/>
<path d="M86.5207 110.972C101.76 110.972 114.113 98.6187 114.113 83.3797C114.113 68.1407 101.76 55.787 86.5207 55.787C71.2817 55.787 58.928 68.1407 58.928 83.3797C58.928 98.6187 71.2817 110.972 86.5207 110.972Z" fill="#A0616A"/>
<path d="M63.6821 117.151L69.434 102.452L99.1521 97.9781L102.345 130.517L72.3074 131.156L63.6821 117.151Z" fill="#A0616A"/>
<path d="M114.381 88.4707C114.023 89.9054 113.299 93.3214 112.168 93.3382C111.245 93.3516 110.361 78.532 111.283 76.0807C112.343 73.2647 109.558 69.7024 107.46 67.8737C103.688 64.5857 95.315 71.6459 86.8008 68.4476C86.5751 68.363 86.6201 68.3725 83.9315 67.2998C75.6585 63.999 75.2236 63.9037 74.7496 63.8566C70.7391 63.4599 65.8447 66.7417 63.8461 70.743C61.7685 74.9024 63.5044 78.4701 61.5507 88.5329C61.323 89.7059 60.9655 91.3776 60.4029 91.4022C59.3746 91.4471 58.3704 85.9544 58.1075 84.5159C57.0057 78.4886 55.9434 72.6776 58.1075 66.1521C58.3435 65.4404 59.7984 62.7986 62.6984 57.5441C66.8763 49.9745 68.9776 46.1755 69.5848 45.4929C73.9398 40.5954 81.8669 36.1278 88.5224 38.0326C91.8863 38.9954 91.2832 40.5433 95.4088 42.0497C102.761 44.7341 109.151 41.4512 110.329 43.7713C110.954 45.0003 109.207 46.0135 109.182 48.3622C109.138 52.3922 114.235 53.5567 117.216 57.5441C118.818 59.6877 121.561 59.7107 114.381 88.4707Z" fill="#2F2E41"/>
<path d="M148.565 141.436C147.453 142.685 146.299 143.909 145.104 145.104C129.05 161.158 107.704 170 85 170C65.3765 170 46.7692 163.395 31.7152 151.236C31.7056 151.23 31.6992 151.223 31.6897 151.214C29.6925 149.603 27.7593 147.891 25.8931 146.082C25.9282 145.801 25.9666 145.523 26.0081 145.248C26.2701 143.394 26.561 141.627 26.8868 140.001C29.5551 126.669 64.664 112.673 65.5778 112.309C65.5906 112.306 65.597 112.302 65.597 112.302C65.597 112.302 70.1155 128.957 89.4769 128.743C102.665 128.599 100.108 112.302 100.108 112.302C100.108 112.302 100.268 112.334 100.568 112.398C104.377 113.207 130.823 119.016 141.257 126.944C144.436 129.36 146.718 134.505 148.357 140.64C148.427 140.902 148.494 141.17 148.565 141.436Z" fill="#6C63FF"/>
<path d="M145.104 24.8961C129.05 8.8422 107.704 0 85 0C62.296 0 40.9502 8.8422 24.896 24.8961C8.84197 40.9503 0 62.2961 0 85C0 105.723 7.36562 125.314 20.8634 140.784C22.1511 142.263 23.4964 143.704 24.896 145.104C25.2252 145.433 25.5575 145.762 25.8931 146.082C27.7592 147.891 29.6925 149.603 31.6897 151.214C31.6992 151.223 31.7056 151.23 31.7152 151.236C46.7692 163.395 65.3765 170 85 170C107.704 170 129.05 161.158 145.104 145.104C146.299 143.909 147.453 142.685 148.565 141.436C162.423 125.867 170 106.017 170 85C170 62.2961 161.158 40.9503 145.104 24.8961ZM148.357 140.64C145.842 143.5 143.139 146.19 140.263 148.686C134.808 153.432 128.737 157.483 122.189 160.711C119.892 161.845 117.536 162.877 115.127 163.801C105.767 167.393 95.609 169.361 85 169.361C74.7616 169.361 64.9451 167.527 55.8604 164.172C52.1312 162.797 48.5267 161.165 45.066 159.295C44.5579 159.02 44.053 158.742 43.5513 158.458C40.9118 156.962 38.3587 155.33 35.9077 153.566C32.3959 151.048 29.0853 148.264 26.008 145.248C24.2825 143.557 22.6337 141.797 21.0583 139.966C8.33706 125.19 0.639098 105.978 0.639098 85C0.639098 38.4835 38.4832 0.639098 85 0.639098C131.517 0.639098 169.361 38.4835 169.361 85C169.361 106.301 161.427 125.781 148.357 140.64Z" fill="#564FCC"/>
</g>
<defs>
<clipPath id="clip0_310_284">
<rect width="170" height="170" fill="white"/>
</clipPath>
</defs>
</svg>
