<svg width="177" height="68" viewBox="0 0 177 68" fill="none" xmlns="http://www.w3.org/2000/svg">
<path d="M68.2455 7.69528L64.796 7.34958C63.5484 7.34958 62.5827 7.65019 61.9026 8.25141C61.1755 8.92403 60.64 10.2129 60.2943 12.1218C59.9524 14.0307 59.6255 16.5708 59.3098 19.7423C58.9979 22.91 58.8439 25.1946 58.8439 26.5962C58.8439 27.9997 59.0693 28.9917 59.5202 29.5723C59.9712 30.1547 60.5066 30.4441 61.1285 30.4441C61.7542 30.4441 62.2577 30.4365 62.6391 30.4215L63.9918 18.7803C64.0463 18.4797 64.2248 18.3181 64.5254 18.2918L68.3883 18.149C68.7584 18.1603 68.9444 18.3219 68.9444 18.6375L67.2159 34.0364C67.1595 34.337 66.9773 34.5079 66.6673 34.5474C64.8429 34.8217 62.6241 34.9607 60.0087 34.9607C56.8767 34.9607 54.8645 33.4483 53.974 30.4215C53.7278 29.5911 53.6057 28.7644 53.6057 27.9415C53.6057 27.1204 53.632 26.1491 53.6884 25.0255C53.8537 21.003 54.3309 16.8264 55.1238 12.4975C55.6593 9.48768 56.315 7.37212 57.0928 6.15465C57.9139 4.88269 58.9002 3.994 60.0538 3.48672C61.4911 2.85544 63.0299 2.53979 64.6682 2.53979C66.3103 2.53979 67.4057 2.58489 67.9524 2.67507C68.5029 2.76525 68.8129 2.81786 68.8843 2.83289C69.044 2.88926 69.1248 3.05835 69.1248 3.34393L68.6739 7.1617C68.6175 7.51867 68.4747 7.69528 68.2455 7.69528Z" fill="#EDE7E3"/>
<path d="M87.1918 10.4459L84.5239 34.119C84.4788 34.476 84.3003 34.6601 83.9903 34.6752L79.8418 34.818C79.5506 34.7879 79.4059 34.6583 79.4059 34.4272L79.7967 31.6315C79.1692 32.7043 78.4834 33.5291 77.7376 34.104C76.9898 34.6752 76.1518 34.9607 75.2199 34.9607C74.288 34.9607 73.4933 34.7992 72.8376 34.4798C72.18 34.1604 71.6427 33.7358 71.2218 33.2097C70.8047 32.6799 70.4703 32.0448 70.2148 31.3083C69.7338 29.9969 69.4933 28.2007 69.4933 25.9199C69.4933 23.6408 69.6455 21.7075 69.9517 20.1181C70.2617 18.5305 70.5323 17.3224 70.7634 16.4957C70.9982 15.6653 71.3082 14.8123 71.6953 13.9405C72.0861 13.065 72.5295 12.3303 73.0255 11.7385C74.1471 10.4008 75.5619 9.73193 77.2716 9.73193C78.5436 9.73193 79.5149 10.0382 80.1875 10.6488C80.8583 11.2557 81.42 12.1519 81.871 13.3393L82.119 10.5511C82.1434 10.2505 82.3144 10.0852 82.63 10.0551L86.6582 9.9123C87.0133 9.94236 87.1918 10.1208 87.1918 10.4459ZM74.6638 25.3337C74.6638 28.6066 75.5393 30.2411 77.2942 30.2411C78.0607 30.2411 78.6807 29.8879 79.1579 29.1815C79.6389 28.4751 80.0541 27.0622 80.4055 24.9429C80.7549 22.8198 80.9316 21.2717 80.9316 20.2984C80.9316 19.3271 80.924 18.7127 80.909 18.4572C80.894 18.1979 80.8658 17.8522 80.8263 17.4201C80.785 16.9898 80.7099 16.6272 80.6009 16.3304C80.49 16.0354 80.3454 15.7366 80.165 15.436C79.808 14.8498 79.235 14.5567 78.444 14.5567C77.6511 14.5567 77.0236 14.91 76.5577 15.6164C76.0917 16.3191 75.7272 17.2585 75.4679 18.4346C74.9306 20.956 74.6638 23.2557 74.6638 25.3337Z" fill="#EDE7E3"/>
<path d="M95.8537 0.54825L94.1252 13.6699C94.811 12.398 95.5475 11.4229 96.3347 10.7465C97.12 10.0701 98.0031 9.73193 98.9801 9.73193C99.9571 9.73193 100.772 9.89351 101.43 10.2129C102.091 10.5342 102.629 10.9569 103.046 11.483C103.461 12.0091 103.807 12.6441 104.083 13.3844C104.549 14.6977 104.782 16.4938 104.782 18.7728C104.782 21.0537 104.626 22.987 104.316 24.5746C104.01 26.1641 103.739 27.3703 103.504 28.197C103.273 29.0237 102.963 29.8767 102.572 30.7522C102.182 31.6296 101.74 32.3605 101.25 32.9466C100.126 34.29 98.8091 34.9607 97.2967 34.9607C95.7823 34.9607 94.6907 34.6432 94.02 34.0063C93.353 33.3713 92.78 32.4093 92.299 31.1204L92.0735 34.119C92.0435 34.476 91.8725 34.6601 91.5625 34.6752L87.4141 34.818C87.1134 34.7879 86.9631 34.6583 86.9631 34.4272L90.7809 0.69104C90.8053 0.501279 90.8485 0.366004 90.9087 0.285215C90.9725 0.200668 91.1003 0.153697 91.2919 0.142424L95.3126 -0.000366211C95.6734 0.0409681 95.8537 0.223214 95.8537 0.54825ZM99.6038 19.359C99.6038 16.088 98.7283 14.4515 96.981 14.4515C96.2145 14.4515 95.5907 14.8047 95.1097 15.5112C94.6325 16.2139 94.2191 17.6267 93.8697 19.7498C93.5183 21.8691 93.3436 23.4154 93.3436 24.3867C93.3436 25.36 93.3511 25.9762 93.3662 26.2355C93.3812 26.4967 93.4075 26.8424 93.4488 27.2726C93.4883 27.7047 93.5634 28.0673 93.6743 28.3623C93.7833 28.6535 93.926 28.9448 94.1027 29.2341C94.4578 29.8353 95.0308 30.1359 95.8237 30.1359C96.6203 30.1359 97.2516 29.7865 97.7175 29.0838C98.1835 28.3774 98.5386 27.4361 98.7847 26.258C99.3295 23.7385 99.6038 21.4389 99.6038 19.359Z" fill="#EDE7E3"/>
<path d="M118.88 15.1505L116.686 14.925C114.906 14.925 113.413 15.282 112.207 15.9922L110.177 34.0965C110.121 34.4422 109.952 34.6282 109.666 34.6526L105.518 34.818C105.217 34.7879 105.067 34.6583 105.067 34.4272L107.773 10.5511C107.827 10.2505 107.998 10.0852 108.284 10.0551L112.289 9.9123C112.659 9.92733 112.845 10.1058 112.845 10.4459L112.597 12.5652C113.473 11.6746 114.322 10.9795 115.145 10.4835C115.966 9.9837 116.791 9.73193 117.618 9.73193C118.444 9.73193 119.077 9.76575 119.519 9.82963C119.804 9.886 119.947 10.0776 119.947 10.4083C119.947 11.3515 119.789 12.7531 119.474 14.6169C119.408 14.9738 119.211 15.1505 118.88 15.1505Z" fill="#EDE7E3"/>
<path d="M123.204 7.67274C122.356 7.67274 121.68 7.40783 121.175 6.87612C120.667 6.34066 120.415 5.65113 120.415 4.80942C120.415 3.9677 120.754 3.21618 121.43 2.55483C122.11 1.88973 122.875 1.5553 123.722 1.5553C124.568 1.5553 125.255 1.82397 125.781 2.35943C126.311 2.89114 126.578 3.57691 126.578 4.41862C126.578 5.26033 126.227 6.01562 125.526 6.68072C124.829 7.34207 124.055 7.67274 123.204 7.67274ZM125.488 10.4459L122.82 34.119C122.79 34.3107 122.74 34.4478 122.67 34.5324C122.604 34.6132 122.477 34.6601 122.287 34.6752L118.161 34.818C117.86 34.7879 117.71 34.6583 117.71 34.4272L120.415 10.5511C120.47 10.2505 120.641 10.0851 120.927 10.0551L124.932 9.9123C125.302 9.94236 125.488 10.1208 125.488 10.4459Z" fill="#EDE7E3"/>
<path d="M126.599 30.8875C126.278 30.0721 126.06 29.2642 125.945 28.4675C125.829 27.6672 125.772 26.5662 125.772 25.1683C125.772 23.7705 125.923 22.0457 126.223 19.9903C127.219 13.1514 130.327 9.73193 135.542 9.73193C137.556 9.73193 139.097 10.4233 140.164 11.8062C141.231 13.1852 141.765 14.9757 141.765 17.1796C141.765 19.3853 141.626 21.5272 141.352 23.6052C141.31 23.9772 141.1 24.1688 140.72 24.1838L130.575 24.5295C130.56 24.7362 130.552 25.0105 130.552 25.3562C130.552 26.9006 130.823 28.1256 131.364 29.0312C131.905 29.933 132.72 30.3839 133.814 30.3839C134.911 30.3839 135.927 30.2242 136.865 29.903C137.806 29.5779 138.357 29.4145 138.518 29.4145C138.684 29.4145 138.826 29.4708 138.947 29.5798C139.071 29.6907 139.135 29.841 139.135 30.0307L138.729 33.6456C138.714 33.8522 138.672 33.9875 138.608 34.0514C138.548 34.1115 138.43 34.1754 138.255 34.2393C136.596 34.7203 135.001 34.9607 133.468 34.9607C131.935 34.9607 130.744 34.7766 129.898 34.4121C129.051 34.042 128.369 33.5667 127.854 32.9842C127.343 32.398 126.924 31.6991 126.599 30.8875ZM131.071 19.3816L130.883 20.6892L136.241 20.4262C136.476 20.4112 136.626 20.3698 136.692 20.2984C136.897 20.0936 137 19.53 137 18.6075C137 17.6869 136.97 17.0368 136.91 16.661C136.85 16.2815 136.745 15.8926 136.594 15.4962C136.279 14.6206 135.739 14.181 134.979 14.181C134.221 14.181 133.622 14.3125 133.182 14.5718C132.209 15.173 131.507 16.7775 131.071 19.3816Z" fill="#EDE7E3"/>
<path d="M150.942 0.54825L147.162 34.0965C147.132 34.2919 147.081 34.4309 147.011 34.5098C146.946 34.5906 146.818 34.6376 146.628 34.6526L142.502 34.818C142.202 34.7879 142.051 34.6583 142.051 34.4272L145.847 0.69104C145.871 0.501279 145.918 0.366004 145.989 0.285215C146.059 0.200668 146.189 0.153697 146.38 0.142424L150.401 -0.000366211C150.762 0.0409681 150.942 0.223214 150.942 0.54825Z" fill="#EDE7E3"/>
<mask id="mask0_21_858" style="mask-type:luminance" maskUnits="userSpaceOnUse" x="0" y="12" width="31" height="18">
<path d="M0 12.9041H30.3016V29.7384H0V12.9041Z" fill="white"/>
</mask>
<g mask="url(#mask0_21_858)">
<mask id="mask1_21_858" style="mask-type:luminance" maskUnits="userSpaceOnUse" x="-2" y="10" width="33" height="37">
<path d="M2.0291 10.2869L30.3749 13.2254L26.9179 46.5933L-1.42981 43.6567L2.0291 10.2869Z" fill="white"/>
</mask>
<g mask="url(#mask1_21_858)">
<mask id="mask2_21_858" style="mask-type:luminance" maskUnits="userSpaceOnUse" x="-2" y="10" width="33" height="37">
<path d="M2.0291 10.2869L30.3749 13.2254L26.9179 46.5933L-1.42981 43.6567L2.0291 10.2869Z" fill="white"/>
</mask>
<g mask="url(#mask2_21_858)">
<path d="M1.9108 23.1512L27.6056 13.4659C28.7066 13.0526 30.0123 14.069 29.8865 15.2902L29.5614 18.4316C29.4881 19.1287 29.0842 19.6172 28.3515 19.8933L2.65481 29.5768C1.55382 29.992 0.248043 28.9756 0.373924 27.7543L0.700839 24.6129C0.772234 23.914 1.17618 23.4274 1.9108 23.1512Z" fill="#6C63FF"/>
</g>
</g>
</g>
<mask id="mask3_21_858" style="mask-type:luminance" maskUnits="userSpaceOnUse" x="0" y="24" width="28" height="23">
<path d="M0 24.4476H27.4158V46.5726H0V24.4476Z" fill="white"/>
</mask>
<g mask="url(#mask3_21_858)">
<mask id="mask4_21_858" style="mask-type:luminance" maskUnits="userSpaceOnUse" x="-2" y="10" width="33" height="37">
<path d="M2.0291 10.2869L30.3749 13.2254L26.9179 46.5933L-1.42981 43.6567L2.0291 10.2869Z" fill="white"/>
</mask>
<g mask="url(#mask4_21_858)">
<mask id="mask5_21_858" style="mask-type:luminance" maskUnits="userSpaceOnUse" x="-2" y="10" width="33" height="37">
<path d="M2.0291 10.2869L30.3749 13.2254L26.9179 46.5933L-1.42981 43.6567L2.0291 10.2869Z" fill="white"/>
</mask>
<g mask="url(#mask5_21_858)">
<path d="M3.1245 25.0394L26.2904 39.7863C26.777 40.1902 27.2467 40.767 27.1734 41.4659L26.8484 44.6073C26.7225 45.8286 25.2364 46.5557 24.2425 45.9244L1.07847 31.1775C0.41712 30.7567 0.122145 30.1968 0.19354 29.4979L0.518576 26.3583C0.646336 25.1352 2.13248 24.4081 3.1245 25.0394Z" fill="#6C63FF"/>
</g>
</g>
</g>
<mask id="mask6_21_858" style="mask-type:luminance" maskUnits="userSpaceOnUse" x="139" y="48" width="38" height="13">
<path d="M139.003 48.4965H176.038V60.04H139.003V48.4965Z" fill="white"/>
</mask>
<g mask="url(#mask6_21_858)">
<mask id="mask7_21_858" style="mask-type:luminance" maskUnits="userSpaceOnUse" x="138" y="22" width="45" height="49">
<path d="M168.981 70.6591L138.174 59.3204L151.632 22.7604L182.437 34.0991L168.981 70.6591Z" fill="white"/>
</mask>
<g mask="url(#mask7_21_858)">
<mask id="mask8_21_858" style="mask-type:luminance" maskUnits="userSpaceOnUse" x="138" y="22" width="45" height="49">
<path d="M168.981 70.6591L138.174 59.3204L151.632 22.7604L182.437 34.0991L168.981 70.6591Z" fill="white"/>
</mask>
<g mask="url(#mask8_21_858)">
<path d="M172.788 56.2805L141.231 59.7976C139.878 59.9479 138.706 58.4355 139.196 57.1034L140.459 53.6764C140.739 52.9155 141.329 52.4834 142.231 52.3838L173.787 48.8666C175.14 48.7163 176.312 50.2288 175.822 51.5609L174.561 54.9878C174.28 55.7506 173.69 56.1809 172.788 56.2805Z" fill="#6C63FF"/>
</g>
</g>
</g>
<mask id="mask9_21_858" style="mask-type:luminance" maskUnits="userSpaceOnUse" x="149" y="23" width="28" height="32">
<path d="M149.584 23.4857H177V54.7492H149.584V23.4857Z" fill="white"/>
</mask>
<g mask="url(#mask9_21_858)">
<mask id="mask10_21_858" style="mask-type:luminance" maskUnits="userSpaceOnUse" x="138" y="22" width="45" height="49">
<path d="M168.981 70.6591L138.174 59.3204L151.632 22.7605L182.437 34.0991L168.981 70.6591Z" fill="white"/>
</mask>
<g mask="url(#mask10_21_858)">
<mask id="mask11_21_858" style="mask-type:luminance" maskUnits="userSpaceOnUse" x="138" y="22" width="45" height="49">
<path d="M168.981 70.6591L138.174 59.3204L151.632 22.7605L182.437 34.0991L168.981 70.6591Z" fill="white"/>
</mask>
<g mask="url(#mask11_21_858)">
<path d="M171.965 53.8173L150.219 30.6815C149.787 30.0916 149.426 29.31 149.706 28.5472L150.969 25.1221C151.459 23.7881 153.332 23.3973 154.264 24.3893L176.012 47.5252C176.632 48.1846 176.803 48.8967 176.523 49.6576L175.262 53.0846C174.772 54.4167 172.897 54.8093 171.965 53.8173Z" fill="#6C63FF"/>
</g>
</g>
</g>
<mask id="mask12_21_858" style="mask-type:luminance" maskUnits="userSpaceOnUse" x="27" y="8" width="20" height="51">
<path d="M27.4158 8.57532H46.6549V58.5971H27.4158V8.57532Z" fill="white"/>
</mask>
<g mask="url(#mask12_21_858)">
<mask id="mask13_21_858" style="mask-type:luminance" maskUnits="userSpaceOnUse" x="26" y="7" width="22" height="53">
<path d="M26.9235 57.7403L39.9099 7.44426L47.2448 9.33811L34.2584 59.6342L26.9235 57.7403Z" fill="white"/>
</mask>
<g mask="url(#mask13_21_858)">
<mask id="mask14_21_858" style="mask-type:luminance" maskUnits="userSpaceOnUse" x="26" y="7" width="22" height="53">
<path d="M26.9235 57.7403L39.9099 7.44426L47.2448 9.33811L34.2584 59.6342L26.9235 57.7403Z" fill="white"/>
</mask>
<g mask="url(#mask14_21_858)">
<path d="M30.6097 58.4731C28.6426 57.9658 27.4608 55.9592 27.9681 53.9921L38.9686 11.3935C39.4759 9.42642 41.4825 8.24464 43.4496 8.75193C45.4167 9.25921 46.6004 11.2658 46.0912 13.2329L35.0926 55.8314C34.5834 57.7986 32.5769 58.9822 30.6097 58.4731Z" fill="#6C63FF"/>
</g>
</g>
</g>
<mask id="mask15_21_858" style="mask-type:luminance" maskUnits="userSpaceOnUse" x="26" y="7" width="22" height="53">
<path d="M26.9348 7.61334H47.1359V59.559H26.9348V7.61334Z" fill="white"/>
</mask>
<g mask="url(#mask15_21_858)">
<mask id="mask16_21_858" style="mask-type:luminance" maskUnits="userSpaceOnUse" x="26" y="7" width="22" height="53">
<path d="M26.9235 57.7403L39.9099 7.44426L47.2448 9.33811L34.2584 59.6342L26.9235 57.7403Z" fill="white"/>
</mask>
<g mask="url(#mask16_21_858)">
<mask id="mask17_21_858" style="mask-type:luminance" maskUnits="userSpaceOnUse" x="26" y="7" width="22" height="53">
<path d="M26.9235 57.7403L39.9099 7.44426L47.2448 9.33811L34.2584 59.6342L26.9235 57.7403Z" fill="white"/>
</mask>
<g mask="url(#mask17_21_858)">
<path d="M30.6097 58.473C28.6426 57.9657 27.4608 55.9592 27.9681 53.992L38.9686 11.3936C39.4759 9.42643 41.4825 8.24465 43.4496 8.75193C45.4167 9.25921 46.6004 11.2658 46.0912 13.2329L35.0926 55.8314C34.5834 57.7985 32.5768 58.9822 30.6097 58.473Z" stroke="#E8E8E8" stroke-width="0.150155"/>
</g>
</g>
</g>
<path d="M41.0948 67.0726C40.7528 67.0726 40.5837 66.9073 40.5837 66.5766L41.0948 62.2854C41.1493 61.9848 41.3278 61.8232 41.6284 61.7969C43.7665 61.5771 45.1775 61.2389 45.8595 60.7823C46.5452 60.322 46.8891 59.407 46.8891 58.0393C46.8891 56.6715 46.5377 54.8904 45.8369 52.6959C45.1399 50.4977 44.689 49.0341 44.4842 48.307C43.8266 45.9829 43.4997 44.0796 43.4997 42.5953C43.4997 41.1073 43.7364 39.8372 44.2136 38.7851C44.6946 37.7292 45.3804 36.8837 46.2728 36.2524C47.9957 35.05 50.316 34.4488 53.232 34.4488C53.6021 34.4488 53.7881 34.6197 53.7881 34.9598L53.232 39.2135C53.1756 39.5554 53.0065 39.7395 52.7209 39.7696C50.0643 39.9462 48.7378 40.7316 48.7378 42.1294C48.7378 43.4126 49.3015 45.9396 50.4288 49.7123C51.5561 53.485 52.1197 56.1867 52.1197 57.8138C52.1197 63.9876 48.4447 67.0726 41.0948 67.0726Z" fill="#EDE7E3"/>
<path d="M70.6806 42.4751L68.0126 66.1482C67.9675 66.5052 67.789 66.6893 67.479 66.7044L63.3306 66.8471C63.0394 66.8171 62.8947 66.6874 62.8947 66.4564L63.2855 63.6607C62.658 64.7335 61.9722 65.5583 61.2263 66.1332C60.4786 66.7044 59.6406 66.9899 58.7087 66.9899C57.7768 66.9899 56.9821 66.8284 56.3264 66.509C55.6688 66.1896 55.1314 65.7649 54.7106 65.2389C54.2935 64.709 53.959 64.074 53.7035 63.3375C53.2225 62.0261 52.9821 60.2299 52.9821 57.949C52.9821 55.67 53.1342 53.7367 53.4405 52.1472C53.7505 50.5596 54.021 49.3516 54.2521 48.5249C54.487 47.6944 54.797 46.8415 55.184 45.9697C55.5748 45.0942 56.0182 44.3595 56.5142 43.7677C57.6359 42.43 59.0506 41.7611 60.7604 41.7611C62.0323 41.7611 63.0037 42.0674 63.6763 42.678C64.347 43.2848 64.9088 44.181 65.3597 45.3685L65.6077 42.5803C65.6322 42.2797 65.8031 42.1143 66.1188 42.0843L70.147 41.9415C70.5021 41.9716 70.6806 42.15 70.6806 42.4751ZM58.1526 57.3629C58.1526 60.6358 59.0281 62.2703 60.7829 62.2703C61.5495 62.2703 62.1695 61.9171 62.6467 61.2107C63.1277 60.5042 63.5429 59.0914 63.8943 56.9721C64.2437 54.849 64.4203 53.3008 64.4203 52.3276C64.4203 51.3563 64.4128 50.7419 64.3978 50.4864C64.3827 50.2271 64.3546 49.8814 64.3151 49.4493C64.2738 49.019 64.1986 48.6564 64.0896 48.3595C63.9788 48.0646 63.8341 47.7658 63.6538 47.4652C63.2968 46.879 62.7237 46.5859 61.9328 46.5859C61.1399 46.5859 60.5124 46.9392 60.0464 47.6456C59.5805 48.3483 59.216 49.2877 58.9567 50.4638C58.4194 52.9852 58.1526 55.2849 58.1526 57.3629Z" fill="#EDE7E3"/>
<path d="M78.2528 42.4751L78.0273 44.3614C79.9963 42.6291 81.8845 41.7611 83.6938 41.7611C85.9935 41.7611 87.444 43.0199 88.0452 45.5338C88.2105 46.2214 88.2932 46.8696 88.2932 47.4803C88.2932 48.0871 88.2706 48.5756 88.2256 48.9457L86.2566 66.1482C86.2002 66.4902 86.0311 66.6743 85.7455 66.7044L81.5971 66.8472C81.2965 66.8171 81.1462 66.6875 81.1462 66.4564L83.0175 50.1933C83.0569 49.8382 83.0776 49.5169 83.0776 49.2313C83.0776 48.1097 82.8108 47.3487 82.281 46.9467C81.7549 46.5408 81.0879 46.3379 80.2819 46.3379C79.474 46.3379 78.6323 46.5089 77.7568 46.849L75.5623 66.1482C75.5059 66.4902 75.3368 66.6743 75.0513 66.7044L70.9028 66.8472C70.6022 66.8171 70.4519 66.6875 70.4519 66.4564L73.1574 42.5803C73.2119 42.2797 73.3829 42.1143 73.6684 42.0843L77.6966 41.9415C78.0668 41.9565 78.2528 42.135 78.2528 42.4751Z" fill="#EDE7E3"/>
<path d="M91.9385 42.0242C92.2542 39.0143 92.459 37.4586 92.5548 37.3572C92.6487 37.252 92.7953 37.1918 92.9907 37.1768L96.9061 37.034C97.2763 37.0641 97.4623 37.2351 97.4623 37.5451C97.2011 39.0688 96.9832 40.5268 96.8084 41.919L101.588 41.7611C101.919 41.7724 102.084 41.949 102.084 42.2947L101.505 45.5564C101.449 45.8833 101.28 46.0524 100.994 46.0674L96.2899 46.2553C95.3617 54.6329 94.8995 59.253 94.8995 60.1135C94.8995 61.7123 95.5834 62.5108 96.9512 62.5108C97.6464 62.5108 98.3228 62.4038 98.9803 62.1877C99.6361 61.9679 100.048 61.857 100.213 61.857C100.502 61.857 100.649 62.0355 100.649 62.3906L100.213 65.9829C100.187 66.1896 100.138 66.3399 100.063 66.4338C99.9874 66.5296 99.6511 66.6443 99.0555 66.7795C98.458 66.9186 97.4416 66.99 96.0043 66.99C93.8944 66.99 92.3331 66.5015 91.3223 65.5245C90.3096 64.5437 89.8042 63.082 89.8042 61.1431C89.8042 59.2004 90.3453 54.2572 91.4275 46.3154L89.4134 46.3981C89.0714 46.383 88.9023 46.2139 88.9023 45.887L89.4585 42.5803C89.4979 42.2647 89.6764 42.0993 89.9921 42.0843L91.9385 42.0242Z" fill="#EDE7E3"/>
<path d="M107.874 66.9899C105.449 66.9899 103.67 66.261 102.538 64.803C101.411 63.345 100.848 61.222 100.848 58.43C100.848 57.128 100.99 55.4295 101.276 53.3347C101.565 51.2417 101.834 49.7198 102.08 48.7729C102.324 47.8222 102.674 46.8903 103.125 45.9772C103.576 45.066 104.109 44.3163 104.725 43.7301C106.082 42.4187 107.916 41.7611 110.227 41.7611C113.513 41.7611 115.641 42.9636 116.615 45.3685C117.135 46.6573 117.396 48.2149 117.396 50.043C117.396 51.8729 117.255 53.7668 116.975 55.7245C116.694 57.6785 116.429 59.1252 116.179 60.0608C115.933 60.9984 115.587 61.9152 115.142 62.8114C114.7 63.7095 114.172 64.4535 113.556 65.0435C112.197 66.3417 110.304 66.9899 107.874 66.9899ZM111.504 57.9941C111.655 57.2727 111.846 55.918 112.083 53.9284C112.323 51.9349 112.444 50.4563 112.444 49.4944C112.444 47.1703 111.602 46.0073 109.918 46.0073C109.126 46.0073 108.472 46.3868 107.957 47.1421C107.446 47.8936 107.033 49.1449 106.717 50.8922C106.089 54.4544 105.778 57.3459 105.778 59.5648C105.778 61.78 106.612 62.8866 108.28 62.8866C109.071 62.8866 109.731 62.5071 110.257 61.7443C110.786 60.9833 111.204 59.7339 111.504 57.9941Z" fill="#EDE7E3"/>
<path d="M128.909 46.7287L126.586 46.6235C125.929 46.6235 125.414 46.7738 125.038 47.0744C124.662 47.375 124.475 47.8109 124.475 48.3821C124.475 48.9495 124.576 49.5751 124.783 50.2609C125.053 51.1778 125.527 52.2449 126.203 53.4624C126.883 54.6799 127.355 55.5423 127.616 56.0477C128.407 57.6221 128.803 59.1196 128.803 60.5418C128.803 62.6123 128.197 64.2055 126.985 65.3215C125.777 66.4338 123.941 66.9899 121.476 66.9899C120.259 66.9899 119.285 66.9242 118.56 66.7945C117.833 66.6649 117.433 66.5616 117.358 66.4864C117.282 66.4113 117.245 66.291 117.245 66.1257L117.778 62.3305C117.809 61.9904 117.929 61.8194 118.139 61.8194C118.35 61.8194 118.755 61.8946 119.357 62.0449C119.962 62.1952 120.491 62.2703 120.942 62.2703C122.611 62.2703 123.445 61.6071 123.445 60.2788C123.445 59.3319 123.242 58.4488 122.836 57.6259C122.434 56.8048 121.998 55.9575 121.529 55.0857C121.057 54.2102 120.691 53.5075 120.431 52.9814C120.17 52.4516 119.9 51.7226 119.62 50.7945C119.338 49.8626 119.199 48.9871 119.199 48.1641C119.199 46.2459 119.77 44.6996 120.912 43.5272C122.055 42.3511 123.719 41.7611 125.91 41.7611C127.317 41.7611 128.42 41.8288 129.217 41.964C129.557 42.0204 129.728 42.197 129.728 42.4976L129.277 46.1501C129.277 46.5371 129.153 46.7287 128.909 46.7287Z" fill="#EDE7E3"/>
</svg>
