<svg width="129" height="129" viewBox="0 0 129 129" fill="none" xmlns="http://www.w3.org/2000/svg">
<g clip-path="url(#clip0_19_174)">
<circle cx="64.5" cy="64.5" r="64.5" fill="#4D5260"/>
<path d="M65.654 84.2085C77.2177 84.2085 86.592 74.8342 86.592 63.2705C86.592 51.7067 77.2177 42.3325 65.654 42.3325C54.0902 42.3325 44.716 51.7067 44.716 63.2705C44.716 74.8342 54.0902 84.2085 65.654 84.2085Z" fill="#A0616A"/>
<path d="M48.3236 88.8969L52.6882 77.7428L75.239 74.348L77.6619 99.0391L54.8687 99.5241L48.3236 88.8969Z" fill="#A0616A"/>
<path d="M86.7948 67.1337C86.5231 68.2223 85.9738 70.8145 85.1159 70.8272C84.4151 70.8374 83.7443 59.5919 84.4444 57.7319C85.2485 55.5949 83.1352 52.8918 81.5433 51.5042C78.681 49.0092 72.3273 54.3666 65.8666 51.9396C65.6953 51.8754 65.7294 51.8826 63.6893 51.0687C57.4115 48.5639 57.0815 48.4916 56.7218 48.4559C53.6786 48.1548 49.9646 50.6451 48.448 53.6815C46.8715 56.8377 48.1887 59.5449 46.7062 67.1808C46.5334 68.0709 46.2621 69.3395 45.8352 69.3582C45.0549 69.3922 44.2929 65.2242 44.0934 64.1326C43.2573 59.559 42.4513 55.1495 44.0934 50.1978C44.2725 49.6577 45.3765 47.653 47.5771 43.6658C50.7474 37.9219 52.3419 35.039 52.8027 34.5211C56.1073 30.8047 62.1226 27.4146 67.173 28.86C69.7256 29.5906 69.2679 30.7652 72.3985 31.9083C77.9776 33.9453 82.8264 31.4541 83.7206 33.2147C84.1943 34.1473 82.8689 34.9161 82.8497 36.6984C82.8167 39.7564 86.6843 40.6401 88.9462 43.6658C90.1621 45.2924 92.2433 45.3099 86.7948 67.1337Z" fill="#2F2E41"/>
<path d="M112.734 107.325C111.891 108.273 111.015 109.202 110.108 110.108C97.9261 122.291 81.7283 129 64.5 129C49.6092 129 35.4896 123.988 24.0663 114.762C24.059 114.757 24.0541 114.752 24.0469 114.745C22.5314 113.523 21.0644 112.223 19.6483 110.85C19.6749 110.637 19.704 110.426 19.7355 110.217C19.9344 108.811 20.1551 107.47 20.4023 106.236C22.4271 96.1196 49.0685 85.499 49.762 85.2224C49.7717 85.2201 49.7765 85.2177 49.7765 85.2177C49.7765 85.2177 53.2053 97.8558 67.8972 97.6934C77.9044 97.5842 75.9645 85.2177 75.9645 85.2177C75.9645 85.2177 76.0858 85.2419 76.3137 85.2904C79.204 85.9039 99.2718 90.3122 107.189 96.3283C109.602 98.1613 111.333 102.065 112.577 106.721C112.63 106.92 112.681 107.123 112.734 107.325Z" fill="#6C63FF"/>
<path d="M110.108 18.8917C97.9261 6.70967 81.7283 0 64.5 0C47.2717 0 31.074 6.70967 18.8917 18.8917C6.7095 31.0741 0 47.2718 0 64.5C0 80.225 5.5892 95.0915 15.8316 106.83C16.8088 107.953 17.8297 109.046 18.8917 110.108C19.1415 110.358 19.3936 110.608 19.6483 110.85C21.0644 112.223 22.5314 113.523 24.0469 114.745C24.0541 114.752 24.059 114.757 24.0663 114.762C35.4896 123.988 49.6093 129 64.5 129C81.7283 129 97.9261 122.291 110.108 110.108C111.015 109.202 111.891 108.273 112.734 107.325C123.251 95.5111 129 80.4481 129 64.5C129 47.2718 122.291 31.0741 110.108 18.8917ZM112.577 106.721C110.668 108.891 108.617 110.933 106.435 112.827C102.296 116.427 97.6884 119.502 92.72 121.951C90.9765 122.812 89.1895 123.595 87.3611 124.296C80.2589 127.022 72.5504 128.515 64.5 128.515C56.7309 128.515 49.2819 127.123 42.3882 124.577C39.5584 123.534 36.8232 122.296 34.1971 120.877C33.8116 120.668 33.4285 120.458 33.0478 120.242C31.0449 119.107 29.1075 117.868 27.2476 116.529C24.5828 114.619 22.0706 112.507 19.7355 110.217C18.4261 108.935 17.175 107.599 15.9795 106.209C6.32636 94.997 0.484962 80.419 0.484962 64.5C0.484962 29.2022 29.202 0.484962 64.5 0.484962C99.798 0.484962 128.515 29.2022 128.515 64.5C128.515 80.6638 122.494 95.4455 112.577 106.721Z" fill="#564FCC"/>
</g>
<defs>
<clipPath id="clip0_19_174">
<rect width="129" height="129" fill="white"/>
</clipPath>
</defs>
</svg>
